<svg xmlns="http://www.w3.org/2000/svg" width="88" height="88" viewBox="-4 -4.5 88 88" style="--hm-bottom:#3B2A4A;--hm-clothes:#C9B6E4;--hm-hair:#1D1D1D;--hm-skin:#FBE3D3;--hm-stroke:#201E1D"><g data-hm-layer-slot="bottom" data-hm-part-id="hm1-p-000033" data-hm-selection-slot="bottom" data-hm-source-group-id="bottom" data-hm-source-part-id="001" transform="translate(0, 85)">
<path d="M42.8347 88.3303C42.6547 90.027 41.7813 92.4834 40.5213 94.833C40.2333 95.367 35.6893 99.5896 38.388 102.443C41.8547 104.579 47.188 103.377 49.588 100.04C50.388 98.838 50.9213 97.77 51.188 96.435C51.988 93.765 51.4547 91.095 51.5613 88.4718" fill="#000000"/>
<path d="M29.6507 86.1288C28.5213 88.5585 25.588 90.561 23.588 92.163L22.388 93.3645C22.2547 93.765 21.988 94.032 21.7213 94.299C21.332 95.036 21.192 95.8784 21.3213 96.702C21.588 97.3695 22.2547 97.9035 22.9213 97.9035C26.9213 98.571 31.3213 98.7045 34.6547 95.901C35.7213 94.9665 36.388 93.6315 36.788 92.2965C37.3213 90.4275 37.188 88.4251 37.3413 86.528" fill="#000000"/>
<path d="M39.824 88.4024C43.1053 87.6561 46.5227 88.2836 49.8893 88.2902C55.7133 88.2996 61.356 86.4426 66.888 84.6056L63.22 70.9659C62.5453 68.4575 61.8667 65.949 61.4507 63.3778C61.3987 63.0654 61.4507 63.578 61.344 63.0988C60.4933 59.0898 59.9547 55.0207 59.7333 50.9289C59.4293 44.2379 58.876 37.5349 57.8507 30.7531C56.5173 22.0756 54.784 13.7986 53.3053 5.24121L25.7213 5.42277C20.8173 33.4831 21.9307 62.0108 22.2547 66.252C22.7 72.2836 22.0973 78.3471 20.4707 84.1718C25.2947 85.4987 31.7787 85.715 36.78 85.5962C38.236 85.5615 38.6 85.5815 39.968 85.3946" fill="var(--hm-bottom, #000000)"/>
<path fill-rule="evenodd" clip-rule="evenodd" d="M39.2573 88.9684C39.4093 89.1206 39.6133 89.2034 39.824 89.2034C39.8827 89.2034 39.9427 89.1967 40.004 89.1887C40.644 89.0431 41.289 88.9524 41.9409 88.9005C41.6459 90.4417 40.8687 92.4894 39.828 94.4339C39.784 94.4967 39.6453 94.6582 39.5227 94.801C38.4107 96.1 35.028 100.054 37.808 102.994C37.856 103.043 37.9107 103.089 37.9693 103.125C39.236 103.904 40.7853 104.31 42.408 104.31C43.116 104.31 43.8387 104.233 44.5587 104.077C46.904 103.565 48.9747 102.265 50.2373 100.508L50.2533 100.484C51.2 99.0623 51.6973 97.9423 51.9653 96.6286C52.533 94.7086 52.4614 92.8258 52.3921 91.0044L52.392 91.0016C52.3654 90.3118 52.3405 89.6518 52.3485 88.9978C57.4652 88.5864 62.3707 86.9563 67.1367 85.3726L67.1427 85.3706C67.544 85.2371 67.7733 84.8126 67.6627 84.4027L63.972 70.6789C63.3213 68.2546 62.6493 65.7488 62.2413 63.251C62.188 62.9332 62.104 62.5114 61.9933 61.9987C61.2 58.3555 60.7107 54.6202 60.5373 50.8969C60.1987 43.4396 59.58 36.8126 58.6467 30.6356C57.8347 25.353 56.86 20.1358 55.9173 15.0908C55.308 11.8335 54.6787 8.46391 54.0987 5.10906C54.0227 4.67251 53.6093 4.38148 53.1733 4.45624C52.7373 4.531 52.4467 4.94619 52.5213 5.3814C53.0992 8.71894 53.7242 12.0657 54.3288 15.3031L54.344 15.3846C55.284 20.4162 56.256 25.62 57.064 30.8759C57.9893 36.9955 58.6027 43.5677 58.9387 50.969C59.116 54.7831 59.6173 58.6078 60.4293 62.3365C60.5333 62.8158 60.6133 63.2229 60.6613 63.5086C61.0819 66.0793 61.7629 68.6193 62.4218 71.077L65.92 84.085C60.752 85.7991 55.4187 87.4906 49.9347 87.4906H49.892C48.8764 87.4879 47.8269 87.4263 46.8119 87.3668L46.7827 87.3651C44.828 87.2489 42.816 87.1301 40.8267 87.4078C41.2707 84.4481 40.8787 81.5285 40.4973 78.6942L40.4886 78.6297C40.4422 78.2869 40.3959 77.9451 40.352 77.6022C40.268 76.9654 40.1853 76.3406 40.1027 75.7252L40.1016 75.7175C39.4754 71.0283 38.9347 66.9797 39.056 62.1603C39.0667 61.7184 38.7173 61.3499 38.276 61.3393C37.8333 61.3339 37.4667 61.6783 37.456 62.1202C37.3307 67.0675 37.88 71.1779 38.5159 75.9369C38.5397 76.1161 38.5638 76.297 38.588 76.4783C38.6464 76.9166 38.7055 77.3605 38.764 77.8092C38.8075 78.1491 38.8534 78.4902 38.8994 78.8324L38.9103 78.9136C39.1532 80.7226 39.401 82.5674 39.4187 84.4078C39.3472 84.4216 39.2763 84.4455 39.208 84.4801C38.0173 85.0822 36.564 85.165 35.2947 85.1957C30.6267 85.3065 25.9733 84.7698 21.4533 83.6044C22.948 77.9186 23.4867 72.0646 23.052 66.1906C22.5933 60.1858 21.836 32.3003 26.5093 5.56027C26.5853 5.12506 26.2933 4.70987 25.8587 4.63378C25.424 4.55768 25.0093 4.85005 24.9333 5.28526C20.232 32.1895 20.996 60.2672 21.4573 66.3121C21.8973 72.2689 21.3053 78.2056 19.7 83.9568C19.6427 84.1624 19.6693 84.3813 19.7747 84.5669C19.8787 84.7525 20.0533 84.8886 20.2587 84.9447C22.9447 85.6826 25.6788 86.2035 28.4378 86.5045C28.42 86.5328 28.4038 86.5624 28.3893 86.5935C27.6237 88.24 26.1706 89.2833 24.6315 90.3884L24.6253 90.3929C24.1147 90.7586 23.588 91.1365 23.0853 91.5396C23.0627 91.5583 23.0413 91.577 23.02 91.5984L21.82 92.7999C21.732 92.8866 21.6653 92.9948 21.6267 93.1123C21.5573 93.3232 21.4013 93.4861 21.1533 93.7344C21.0973 93.7904 21.0493 93.8545 21.012 93.9253C20.5453 94.809 20.3733 95.8397 20.5293 96.8276C20.5387 96.8863 20.5547 96.9437 20.5773 96.9998C20.9693 97.9783 21.8947 98.6685 22.8467 98.7032C24.2053 98.9275 25.6933 99.1117 27.2147 99.1117C29.9453 99.1117 32.784 98.5203 35.168 96.5138C35.17 96.5118 35.172 96.5101 35.174 96.5085L35.1763 96.5066L35.18 96.5032C36.2427 95.5713 37.0413 94.2337 37.556 92.5155C37.9557 91.1176 38.0053 89.685 38.0532 88.299L38.0533 88.2956L38.0538 88.2822C38.0736 87.6958 38.0923 87.1419 38.1373 86.5921C38.1391 86.5699 38.1399 86.5478 38.1398 86.5259C38.5498 86.4383 38.9582 86.3215 39.3579 86.1651C39.3005 86.8543 39.2 87.5412 39.044 88.2235C38.9827 88.4918 39.0627 88.7735 39.2573 88.9684ZM50.7479 89.0851C50.4778 89.0927 50.2072 89.0966 49.936 89.0966H49.8907C48.8284 89.0939 47.7557 89.031 46.7179 88.9701L46.6893 88.9684C45.6265 88.9052 44.5905 88.8439 43.5744 88.842C43.299 90.6095 42.4397 92.9496 41.2267 95.2122C41.144 95.3644 41.0173 95.5153 40.7373 95.8423C39.1053 97.75 37.4333 100.144 38.9 101.816C40.36 102.678 42.2907 102.931 44.2173 102.511C46.1773 102.083 47.8933 101.017 48.9307 99.583C49.756 98.3415 50.1827 97.3829 50.404 96.2775L50.4054 96.271C50.4103 96.249 50.4154 96.226 50.4227 96.2041C50.9253 94.526 50.8613 92.8439 50.7933 91.0617L50.7912 91.0055C50.7677 90.376 50.7436 89.7312 50.7479 89.0851ZM34.1 86.8124C32.6832 86.8124 31.2687 86.7548 29.8596 86.64C29.9364 86.8365 29.9361 87.0628 29.84 87.269C28.896 89.2982 27.1987 90.517 25.5573 91.6945C25.076 92.0389 24.58 92.3954 24.12 92.7625L23.0707 93.8131C22.8893 94.231 22.6173 94.53 22.3747 94.7757C22.1213 95.303 22.0227 95.9011 22.0947 96.4818C22.264 96.8262 22.6253 97.1039 22.9187 97.1039C22.9627 97.1039 23.0067 97.1079 23.0507 97.1146C26.512 97.6926 30.9 98.0064 34.132 95.2936C34.9613 94.5647 35.5973 93.478 36.02 92.0669C36.3627 90.8668 36.4093 89.5318 36.4533 88.2408C36.4702 87.7495 36.488 87.245 36.5218 86.7447C36.115 86.7739 35.7163 86.7875 35.3333 86.7963C34.9213 86.807 34.5107 86.8124 34.1 86.8124Z" fill="var(--hm-stroke, #000000)"/>
<path d="M38.2533 60.7906C37.8347 60.7906 37.4827 60.4635 37.456 60.0403C37.1653 55.3998 36.8013 50.3896 36.4147 45.083L36.3999 44.8803C36.0312 39.8117 35.6503 34.5765 35.324 29.4808C35.2227 28.4128 34.3653 27.3061 33.1587 27.3822C32.7173 27.4075 32.3387 27.0725 32.312 26.6306C32.2853 26.1887 32.6213 25.8096 33.0627 25.7829C35.2333 25.656 36.7533 27.5304 36.9187 29.346L36.9188 29.3491L36.9193 29.3567C36.9197 29.3603 36.92 29.364 36.92 29.3673C37.2456 34.4474 37.6254 39.6699 37.9934 44.7289L38.0121 44.986C38.3982 50.2881 38.763 55.2974 39.0533 59.9402C39.0813 60.382 38.7453 60.7625 38.3053 60.7892C38.2881 60.7906 38.2706 60.7906 38.2533 60.7906Z" fill="var(--hm-stroke, #000000)"/>
</g><g data-hm-layer-slot="body" data-hm-part-id="hm1-p-000031" data-hm-selection-slot="body" data-hm-source-group-id="body" data-hm-source-part-id="007" transform="translate(0, 51)">
<g clip-path="url(#clip0_2_1901)">
<path d="M45.2494 0C45.3694 1.34667 45.92 4.38933 47.9694 3.93333L48.1894 4.26667C48.0894 6.356 47.0307 7.82933 45.372 9.356C43.6867 10.8827 41.5374 11.8 39.2694 11.9613C37.2694 12.108 35.1427 11.6293 33.6467 10.288C32.1507 8.94667 31.364 7.088 32.3547 5.49467H32.4987C32.9494 5.508 33.364 5.272 33.7454 5.032C34.2307 4.72533 35.232 3.468 35.532 3.10667C35.932 2.588 36.0947 0.621333 36.3 0H45.2494V0Z" fill="var(--hm-skin, #FFFFFF)"/>
<path d="M16.94 54.632C16.0067 54.98 15.2067 55.78 15.4734 56.8467C17.2067 58.58 16.8067 61.1133 16.6734 63.2467C16.944 63.8413 17.376 64.348 17.9187 64.7107C18.4627 65.0733 19.096 65.2773 19.7494 65.2987L20.8667 55.116L16.94 54.632Z" fill="var(--hm-skin, #FFFFFF)"/>
<path d="M48.3013 3.21467C50.66 3.84667 52.4893 5.664 53.9627 7.524C55.5693 9.55733 56.8307 11.8413 57.696 14.284C58.18 15.6467 58.9453 17.1827 59.2613 18.5933L59.6827 19.8747C61.9493 29.6507 62.368 39.7307 62.52 49.784L62.6533 50.1067C63.4667 53.1133 66.5333 60.7133 67.2 63.9133C67.2213 64.1867 67.176 64.4613 67.0667 64.7133C65.7333 66.3133 63.4667 65.9133 61.7133 66.456L55.5173 67.6907C46.6493 69.2813 43.4827 70.4693 34.6 68.972L34.2 68.872C33.616 63.96 33.1853 58.856 32.936 53.7133L32.8747 53.98C32.0333 58.8973 31.2453 63.4467 31.08 68.432L31.0547 68.644C29.144 68.2787 23.368 67.2453 21.4547 66.88C20.9373 66.78 20.3693 66.6493 20.0667 66.2133C19.816 65.856 19.8173 65.3853 19.836 64.9493C19.912 63.216 20.112 61.4947 20.312 59.7733L21.2267 51.8947H21.1573C19.8027 51.7307 18.7147 51.5667 17.36 51.4027C17.9213 45.208 18.6413 39.0307 19.52 32.8693C20.2853 27.5027 21.1733 22.1347 22.752 16.9493C24.1547 12.3413 27.8467 6.24267 32.072 3.932L34.7027 4.352C36.436 6.07467 39.352 6.44 41.4507 5.196L48.3013 3.21467Z" fill="var(--hm-clothes, #FFFFFF)"/>
<path d="M52.8813 58C51.5973 58.4147 49.936 60.0987 51.0213 61.5227C51.6187 62.308 52.5213 62.7307 53.3493 63.2227C53.988 63.6027 54.156 64.8813 54.4027 65.56C55.0267 67.2707 56.2387 68.6707 58.224 68.5413C60.2453 68.408 61.5027 66.6867 61.8867 64.8293C62.304 62.816 61.636 59.896 61.3013 57.904L52.8813 58Z" fill="var(--hm-skin, #FFFFFF)"/>
<path d="M51.6347 54.5106C51.4267 55.5306 51.3573 56.5733 51.4307 57.612C51.428 57.672 51.4373 57.732 51.4573 57.788C51.4787 57.844 51.5107 57.896 51.552 57.94C51.636 57.9906 51.7347 58.0133 51.832 58.0013L60.8987 57.976C61.036 57.9866 61.1733 57.9626 61.2987 57.9053C61.5533 57.76 61.5733 57.4053 61.5653 57.112L61.4667 54.6546L51.6347 54.5106Z" fill="var(--hm-clothes, #FFFFFF)"/>
<path d="M17.78 51.6707C17.3533 52.572 17.2653 53.5907 17.1853 54.5853C18.32 54.9307 19.4986 55.1107 20.684 55.1187L21.0453 52.0267L17.78 51.6707Z" fill="var(--hm-clothes, #FFFFFF)"/>
<path d="M34.2773 25.1386L34.3813 5.39064C34.3813 4.61864 34.5333 1.91198 34.7693 1.53731C33.036 2.67331 31.9787 4.55598 30.9813 6.36664C30.4093 7.40531 29.8187 8.51864 29.8973 9.69998C30.008 11.3853 31.4347 12.7333 31.6787 14.404C31.96 16.3293 30.6227 18.1293 30.4787 20.0693C30.4053 21.1093 30.8133 23.4026 31.0867 24.4133L33.0787 31.768L33.0107 38.4733C35.3253 33.6466 38.0293 29.016 41.0973 24.6293C42.052 23.2613 43.0973 21.7413 42.892 20.0853C42.7587 19.0186 42.1213 17.9453 42.484 16.9333C42.6387 16.5013 42.96 16.1533 43.272 15.8173L47.78 10.9826C48.088 10.652 48.4053 10.3053 48.54 9.87331C48.692 9.37998 48.584 8.84798 48.4747 8.34264L47.1013 2.01464C46.98 1.45598 46.7467 0.783976 46.1813 0.69331C44.8253 1.58664 43.6213 2.91864 42.5667 4.31331C37.9893 10.3733 35.848 17.7866 34.3 25.296" fill="var(--hm-clothes, #FFFFFF)"/>
<path d="M41.4506 5.196C39.352 6.44 36.436 6.07467 34.7026 4.352V21.9333L41.4506 5.196Z" fill="var(--hm-clothes, #FFFFFF)"/>
<path fill-rule="evenodd" clip-rule="evenodd" d="M34.4721 69.76C37.4014 70.2547 39.7201 70.4614 41.8201 70.4614C45.2107 70.4614 48.0334 69.9213 51.94 69.172L52.2538 69.1122C53.2671 68.9189 54.3186 68.7184 55.4861 68.508C56.2036 69.0585 57.0481 69.3493 57.9787 69.3493C58.0774 69.3493 58.176 69.3466 58.272 69.3386C59.6841 69.245 60.9119 68.478 61.7355 67.2557C61.8068 67.2537 61.8781 67.2416 61.9494 67.2187C62.4467 67.064 63.0161 66.9933 63.6187 66.9187C65.0054 66.7467 66.5761 66.5507 67.6814 65.224C67.7307 65.1653 67.7707 65.1 67.8014 65.0293C67.9601 64.66 68.0281 64.252 67.9974 63.8507C67.9947 63.8173 67.9894 63.7827 67.9827 63.7493C67.5895 61.859 66.4339 58.6238 65.3138 55.4879L65.2764 55.3834C64.4937 53.192 63.7565 51.1283 63.4227 49.8973C63.4012 49.8182 63.3686 49.7451 63.3269 49.6792C63.2264 39.9406 62.9879 30.6381 60.7147 20.8373C60.6147 20.4067 60.1854 20.1387 59.7547 20.2387C59.3241 20.3387 59.0561 20.768 59.1561 21.1987C61.5601 31.5653 61.6521 41.4413 61.7481 51.8973L61.7483 51.9293C61.7536 52.5428 61.7588 53.1588 61.7654 53.7773L51.6707 53.612C50.1707 41.892 49.6534 29.9693 50.132 18.1667C50.1507 17.7253 49.8067 17.352 49.3654 17.3347C48.9227 17.3187 48.5507 17.66 48.5334 18.1013C48.0414 30.2253 48.5934 42.472 50.1734 54.504C50.2145 54.8147 50.4303 55.0647 50.7144 55.1593C50.6033 55.9774 50.5756 56.8052 50.6307 57.6307C50.6294 57.7787 50.656 57.924 50.708 58.0667C50.7667 58.2253 50.856 58.368 50.972 58.4907C50.9835 58.5024 50.9952 58.5138 51.0072 58.5248C50.5225 58.8905 50.1207 59.3589 49.944 59.9226C49.7907 60.4093 49.744 61.1666 50.384 62.0066C50.9774 62.7866 51.796 63.2546 52.5187 63.6666L52.6205 63.7251C52.7277 63.7865 52.8348 63.8479 52.94 63.9106C53.1373 64.0285 53.3531 64.8144 53.4474 65.1582L53.4494 65.1653C53.5147 65.4053 53.5774 65.6306 53.6507 65.8346C53.8211 66.3021 54.0238 66.7271 54.2554 67.1071C53.3163 67.2807 52.4399 67.4479 51.64 67.6014L51.6376 67.6018C45.5498 68.7669 42.1724 69.4132 34.9347 68.2147C34.3994 63.6041 34.0107 58.8995 33.7726 54.225L33.7947 54.0973C33.8214 53.9413 33.8012 53.7882 33.7442 53.6525C33.5052 48.7065 33.4352 43.7998 33.5387 39.08C33.6187 39.0107 33.6867 38.924 33.7361 38.8214C36.0241 34.048 38.7227 29.428 41.7574 25.0894C42.7254 23.7027 43.9307 21.976 43.6907 19.992C43.6387 19.5654 43.5254 19.164 43.4147 18.776C43.24 18.1614 43.0894 17.6307 43.2414 17.2054C43.3402 16.9275 43.6003 16.647 43.8521 16.3754L43.8614 16.3654L48.3694 11.5307L48.3717 11.5282C48.7046 11.17 49.1192 10.7239 49.3081 10.112C49.5258 9.40684 49.3733 8.70033 49.2614 8.18222L48.3682 4.06728C50.5628 4.76682 52.2451 6.64487 53.3347 8.02002C54.8907 9.98802 56.104 12.1854 56.9414 14.552C57.116 15.0414 57.3254 15.5547 57.528 16.0507L57.5338 16.0648C57.9053 16.9751 58.289 17.9151 58.48 18.768C58.564 19.14 58.8934 19.3934 59.26 19.3934C59.3187 19.3934 59.3774 19.3867 59.436 19.3734C59.8667 19.276 60.1374 18.848 60.0414 18.4174C59.82 17.4294 59.408 16.42 59.0094 15.444C58.804 14.9427 58.6107 14.4694 58.4494 14.016C57.5534 11.484 56.2547 9.13335 54.5894 7.02669C53.3134 5.41602 51.2947 3.18802 48.508 2.44135C48.3405 2.39633 48.1712 2.40804 48.0203 2.46468L47.8867 1.84936C47.6374 0.688023 47.1067 0.0346898 46.3107 -0.0933102C46.1134 -0.12531 45.9107 -0.0826436 45.744 0.0280231C44.4894 0.853356 43.2427 2.09869 41.9307 3.83336C41.7899 4.01977 41.6514 4.20745 41.5151 4.39634C41.3598 4.38627 41.2 4.42131 41.0561 4.50667C39.3532 5.51686 36.9459 5.2644 35.4597 3.95234C35.6013 3.44338 35.7611 2.97858 35.8467 2.83067C36.048 2.51201 35.9987 2.09734 35.7307 1.83334C35.4627 1.56934 35.0467 1.52801 34.732 1.73467C33.9628 2.23891 33.2536 2.72021 32.6115 3.2457C32.522 3.25945 32.4334 3.28873 32.3494 3.33466C27.6987 5.87866 23.356 12.2613 22 16.716C20.3947 21.9893 19.4854 27.5413 18.7414 32.756C17.8654 38.9 17.136 45.148 16.576 51.3307C16.5533 51.5752 16.6437 51.8048 16.8047 51.967C16.5865 52.6361 16.4951 53.3229 16.4346 53.9735C15.0765 54.5735 14.3825 55.7803 14.6974 57.04C14.7334 57.1813 14.8054 57.3093 14.9081 57.412C16.2041 58.7093 16.0614 60.6467 15.9227 62.52L15.92 62.5564C15.9036 62.7733 15.8874 62.9877 15.8747 63.1973C15.8667 63.328 15.8907 63.4587 15.9454 63.5787C16.2774 64.3093 16.8067 64.9307 17.4747 65.376C17.9762 65.712 18.5402 65.9363 19.1306 66.0382C19.1883 66.2588 19.2807 66.4765 19.4254 66.6827C19.922 67.3896 20.7536 67.5595 21.3149 67.6742L21.3174 67.6747C22.1752 67.8382 23.8253 68.1389 25.5235 68.4483L27.285 68.7694C28.7674 69.0397 30.1603 69.2937 30.9174 69.4387C30.9667 69.448 31.016 69.4534 31.0667 69.4534C31.2347 69.4534 31.4014 69.4 31.54 69.2973C31.72 69.1667 31.836 68.9667 31.8627 68.7467L31.888 68.5347C31.8907 68.512 31.892 68.4894 31.8934 68.4667C31.9775 65.9286 32.255 63.4975 32.6203 61.062C32.8365 63.7134 33.1002 66.3553 33.4107 68.9654C33.4494 69.2947 33.6881 69.5667 34.0107 69.6467L34.4107 69.7467C34.4279 69.7512 34.446 69.7549 34.4634 69.7583L34.4721 69.76ZM29.4776 7.61351C26.7368 10.422 24.4218 14.2512 23.5294 17.1813C22.0427 22.0627 21.1734 27.028 20.324 32.9813C19.488 38.8427 18.7867 44.8013 18.24 50.704C18.5695 50.7464 18.8868 50.7889 19.1982 50.8305L19.3787 50.8547C19.754 50.9049 20.1377 50.9562 20.5378 51.0076L21.1093 46.08C22.2129 36.5713 23.3542 26.7378 25.592 17.2427C25.6934 16.8133 26.124 16.5467 26.5547 16.648C26.984 16.7493 27.2507 17.18 27.1494 17.6107C24.9323 27.0177 23.7963 36.806 22.6977 46.2718L21.12 59.8747C20.9254 61.552 20.724 63.288 20.648 64.9933C20.6387 65.2054 20.6214 65.6027 20.7347 65.7627C20.8659 65.9483 21.3187 66.0416 21.6227 66.1042L21.628 66.1053C22.5677 66.2851 24.5071 66.638 26.3987 66.9822L26.4894 66.9987C27.8747 67.2507 29.296 67.5093 30.3227 67.7C30.5174 63.5587 31.1894 59.716 31.8987 55.66C31.9356 55.4478 31.9727 55.2352 32.01 55.0219L32.0108 55.017L32.0112 55.0151C32.0622 54.7229 32.1135 54.4296 32.1643 54.1352C31.7779 46.4329 31.7976 38.814 32.2414 31.8254C32.2431 31.8042 32.2453 31.7831 32.2484 31.762L30.3147 24.6227C30.0414 23.6133 29.596 21.2107 29.6814 20.0133C29.7507 19.076 30.052 18.2107 30.344 17.3733L30.3449 17.371C30.6926 16.3718 31.0213 15.4273 30.888 14.52C30.792 13.8627 30.452 13.2227 30.092 12.5453L30.0889 12.5394C29.6365 11.6866 29.1692 10.8055 29.1 9.75201C29.0489 8.98962 29.2205 8.27253 29.4776 7.61351ZM33.8787 31.7502L33.9427 31.4174C35.572 22.5334 37.4188 12.4639 43.2067 4.79602C44.2414 3.42669 45.216 2.40269 46.1694 1.68269C46.2161 1.79069 46.2707 1.94936 46.3214 2.18536L47.6947 8.51336L47.6964 8.52107C47.7786 8.90316 47.8714 9.33408 47.7774 9.63869C47.697 9.8997 47.4471 10.1685 47.2044 10.4297L47.1961 10.4387L42.6867 15.2747L42.6795 15.2825C42.3501 15.6385 41.9412 16.0803 41.732 16.6654C41.4067 17.5734 41.6547 18.4454 41.8734 19.2134C41.972 19.5574 42.0641 19.8814 42.1001 20.184C42.2667 21.5614 41.2987 22.9494 40.444 24.1734C37.944 27.7494 35.6667 31.5134 33.6547 35.396C33.7031 34.2646 33.7618 33.1461 33.8307 32.0429C33.8644 31.9505 33.8813 31.8514 33.8787 31.7502ZM32.9237 28.1375L31.8587 24.2053C31.5814 23.1787 31.2134 21.0133 31.276 20.1293C31.3293 19.4047 31.5836 18.6747 31.8526 17.9022L31.854 17.8981C32.2498 16.7601 32.6586 15.5846 32.4694 14.2893C32.3336 13.36 31.9119 12.5662 31.5044 11.7992L31.4961 11.7835C31.1079 11.0508 30.7411 10.3586 30.6947 9.64801C30.6347 8.73601 31.0854 7.83601 31.6814 6.75334C32.2067 5.80001 32.8787 5.08401 33.7014 4.42134C33.628 4.78934 33.5814 5.12934 33.5814 5.38667L33.4774 25.1347C33.4771 25.1792 33.4805 25.2229 33.4873 25.2655C33.2898 26.229 33.1034 27.1876 32.9237 28.1375ZM35.1126 18.4503C36.2739 14.3273 37.8149 10.2751 40.0621 6.58704C39.6115 6.6841 39.1505 6.73201 38.6894 6.73201C37.4578 6.73201 36.2225 6.3918 35.1796 5.73553L35.1126 18.4503ZM18.0414 53.9907C18.0985 53.4186 18.1836 52.8519 18.3697 52.3369C18.6263 52.3706 18.8768 52.4041 19.1241 52.4371L19.3934 52.473L19.3944 52.4731L19.3954 52.4732C19.7064 52.5146 20.0238 52.5568 20.3532 52.5992L20.1556 54.3029C19.4427 54.265 18.7348 54.1603 18.0414 53.9907ZM17.1499 55.4092C18.0708 55.6738 19.016 55.8369 19.9709 55.8949L19.5252 59.7385C19.3497 61.2547 19.169 62.8166 19.0783 64.3834C18.8262 64.3067 18.5857 64.1931 18.3641 64.0453C17.9974 63.8 17.6961 63.4707 17.4867 63.084C17.4927 62.99 17.4997 62.896 17.5067 62.8014L17.5098 62.7599L17.5189 62.6352C17.6629 60.6836 17.8408 58.2713 16.2241 56.4747C16.2 55.8656 16.8834 55.5205 17.1499 55.4092ZM53.4763 58.7955C53.3968 59.0246 53.2144 59.2151 52.9654 59.2946C52.224 59.5333 51.5947 59.9986 51.4694 60.4C51.4454 60.476 51.3827 60.6786 51.656 61.0373C52.0484 61.5538 52.6527 61.9001 53.2926 62.267L53.3107 62.2773C53.46 62.3626 53.6094 62.448 53.7561 62.5346C54.5107 62.984 54.7774 63.96 54.9907 64.7426C55.0467 64.9493 55.1014 65.1453 55.1521 65.2866C55.5827 66.468 56.46 67.856 58.1694 67.7426C59.2947 67.668 60.6547 66.8213 61.1014 64.6666C61.4437 63.0152 61.1354 61.2374 60.8371 59.5166L60.836 59.5106C60.7989 59.3 60.7632 59.0906 60.7274 58.8813L60.7267 58.8773C60.721 58.843 60.7175 58.8089 60.7161 58.7751L53.4763 58.7955ZM62.1109 58.2106C62.2088 58.3197 62.2779 58.4569 62.304 58.612C62.3337 58.7896 62.3642 58.9672 62.395 59.1457L62.4107 59.2373L62.4119 59.2441C62.7355 61.1114 63.0702 63.0423 62.6654 64.9906C62.633 65.1469 62.5959 65.3001 62.5543 65.45C62.8448 65.4037 63.1359 65.3676 63.4227 65.332L63.4243 65.3318C64.625 65.1826 65.667 65.053 66.3694 64.296C66.3961 64.2067 66.4081 64.112 66.4054 64.0187C66.0201 62.216 64.8387 58.9107 63.7947 55.992L63.7773 55.9432C63.6348 55.5441 63.4937 55.1491 63.3562 54.7621C63.3235 54.9108 63.2486 55.0484 63.1387 55.1573C62.9894 55.3067 62.7854 55.3907 62.5747 55.3907H62.5614L62.2961 55.3863L62.364 57.0787C62.3699 57.2888 62.3838 57.7978 62.1109 58.2106ZM60.6942 55.36L52.322 55.2225C52.2237 55.8766 52.1868 56.5387 52.2107 57.2L60.768 57.176C60.768 57.1671 60.768 57.1576 60.7676 57.1479C60.7674 57.1431 60.7671 57.1382 60.7667 57.1333L60.6942 55.36Z" fill="var(--hm-stroke, #000000)"/>
</g>
<defs>
<clipPath id="clip0_2_1901">
<rect width="80" height="80" fill="#FFFFFF"/>
</clipPath>
</defs>
</g><g data-hm-layer-slot="head" data-hm-part-id="hm1-p-000012" data-hm-selection-slot="head" data-hm-source-group-id="head" data-hm-source-part-id="012" transform="translate(0, -0.5)">
<path d="M34.6667 51.388C33.968 51.9693 32.9693 52.2787 32.1333 51.9213C31.7253 51.748 31.3733 51.4293 30.9333 51.3547C30.0573 51.2067 29.3787 52.0587 28.608 52.5C27.4507 53.1667 25.928 52.86 24.8533 52.072C23.7787 51.284 23.076 50.0933 22.5 48.892C20.4587 44.6387 19.652 39.7827 20.3267 35.1133C21.0013 30.444 23.1813 25.988 26.5333 22.6667C27.8187 21.3907 29.3147 20.2587 31.056 19.7533C31.9893 19.4867 32.9787 19.3987 33.932 19.18C35.556 18.8067 37.08 18.0413 38.7253 17.776C40.3707 17.5107 42.2987 17.8987 43.1827 19.312L46.9627 20.9907C48.5067 21.084 50.008 21.5373 51.3467 22.3147C52.684 23.092 53.8213 24.172 54.6667 25.4667C58.2333 31.0467 55.4347 38.6507 57.6867 44.8787C58.1427 46.1427 58.7107 47.792 57.6587 48.6293C56.492 49.5627 54.6 48.3213 53.3187 49.088C52.7853 49.4093 51.224 51.5867 49.5427 51.2213C48.5867 51.0133 46.8387 50.7347 46.96 49.468L34.6667 51.388Z" fill="var(--hm-hair, #000000)"/>
<path d="M35.8853 53.3653C35.82 51.976 35.8333 50.9853 35.9227 49.5973C34.58 50.148 32.9773 49.808 31.5787 49.5667C30.2213 49.5013 29.0213 48.968 27.8213 48.4347C26.2213 47.6347 25.0213 46.168 24.3547 44.568C22.888 40.8347 24.6667 36.1333 25.8667 32.5333C32.5333 34.1333 39.2 30.1333 42.356 24.368C45.8613 33.412 43.2133 35.6347 46.96 38.356L47.8227 39.0013C49.352 37.6573 50.3107 37.9173 51.3147 38.424C52.744 39.1453 52.6267 40.5587 52.468 41.852C52.132 43.2653 51.396 44.456 50.2467 45.324C49.6667 45.7547 49.0347 46.1133 48.3667 46.3907C48.0387 46.5293 47.704 46.652 47.364 46.7587C46.9813 46.88 46.5947 46.876 46.4147 47.2493C45.6227 48.9 45.312 50.6067 45.4667 52.432L35.8853 53.3653Z" fill="var(--hm-skin, #FFFFFF)"/>
<path d="M46.96 39.156C46.7973 39.156 46.632 39.1067 46.4907 39.0027C44.1773 37.3227 43.992 35.7227 43.712 33.3027C43.5173 31.6214 43.26 29.4014 42.172 26.2C40.5413 28.596 38.3253 30.5947 35.8 31.9214C32.536 33.636 29.036 34.1173 25.68 33.312C25.2507 33.2093 24.9853 32.7774 25.0893 32.348C25.192 31.9187 25.624 31.6533 26.0533 31.7573C29.0267 32.4707 32.14 32.0387 35.056 30.5067C37.7973 29.0667 40.1413 26.7507 41.6547 23.9867C41.804 23.7133 42.0973 23.5533 42.4093 23.572C42.72 23.592 42.9907 23.7907 43.1027 24.0813C44.7467 28.3227 45.068 31.096 45.3013 33.1214C45.5653 35.4027 45.6853 36.444 47.4307 37.7107C47.788 37.9707 47.868 38.4707 47.608 38.828C47.4507 39.0413 47.2067 39.156 46.96 39.156Z" fill="var(--hm-stroke, #000000)"/>
<path d="M27.1813 53.664C26.232 53.664 25.236 53.344 24.3893 52.7227C23.1147 51.788 22.3293 50.3733 21.788 49.244C19.656 44.7973 18.8587 39.74 19.544 35.004C20.256 30.0893 22.5387 25.5053 25.9707 22.0987C27.5947 20.48 29.1853 19.46 30.832 18.9827C31.424 18.8107 32.02 18.7107 32.5973 18.6147C32.9987 18.548 33.3787 18.484 33.752 18.3987C34.4253 18.244 35.0813 18.0173 35.776 17.7773C36.676 17.4667 37.608 17.144 38.5973 16.9853C40.304 16.7107 42.7067 17.0427 43.86 18.8867C44.0947 19.2613 43.98 19.7547 43.6053 19.9893C43.2307 20.224 42.7373 20.1093 42.5027 19.7347C42.0053 18.9387 40.6827 18.2693 38.8507 18.564C37.9987 18.7013 37.172 18.9867 36.2973 19.2893C35.5933 19.532 34.8653 19.784 34.108 19.9587C33.6867 20.0547 33.2653 20.1253 32.8587 20.1933C32.3027 20.2867 31.7787 20.3733 31.276 20.52C29.8933 20.9213 28.5267 21.8093 27.0973 23.2347C23.908 26.4 21.788 30.6613 21.1253 35.2347C20.4853 39.66 21.232 44.3893 23.228 48.5533C23.7173 49.5733 24.3507 50.7133 25.3333 51.4347C26.248 52.1053 27.4347 52.2613 28.2187 51.8133C28.4013 51.7093 28.5933 51.5627 28.7973 51.4093C29.384 50.9653 30.116 50.412 31.0733 50.5747C31.4907 50.6453 31.8267 50.8427 32.096 51.0013C32.224 51.076 32.344 51.148 32.4507 51.192C33.0053 51.428 33.7107 51.1547 34.1627 50.78C34.5027 50.4987 35.0067 50.5453 35.2893 50.8853C35.5707 51.2253 35.524 51.7293 35.184 52.012C34.176 52.8467 32.8587 53.1027 31.828 52.6653C31.6253 52.58 31.444 52.4733 31.2853 52.38C31.104 52.2733 30.9333 52.1733 30.8067 52.1507C30.5307 52.104 30.1573 52.3853 29.764 52.684C29.5293 52.8613 29.2853 53.0453 29.0147 53.2013C28.468 53.5107 27.836 53.664 27.1813 53.664Z" fill="var(--hm-stroke, #000000)"/>
<path d="M49.9387 52.064C49.7533 52.064 49.5653 52.0453 49.372 52.0027C48.14 51.7347 46.0907 50.3627 45.1187 48.8214C44.8827 48.448 44.9947 47.9533 45.3693 47.7174C45.7427 47.4814 46.2373 47.5934 46.4733 47.968C47.2213 49.156 48.928 50.268 49.712 50.4387C50.5667 50.624 51.592 49.6147 52.2053 49.0107C52.4907 48.7307 52.696 48.528 52.9053 48.4014C53.7613 47.8894 54.708 48.0093 55.5427 48.1147C56.336 48.2147 56.84 48.2573 57.1587 48.0027C57.736 47.5427 57.364 46.34 56.9333 45.148C55.8893 42.2627 55.8813 39.1294 55.8733 36.1C55.864 32.352 55.8547 28.812 53.9907 25.896C53.2213 24.716 52.1653 23.7134 50.9413 23.0027C49.7173 22.292 48.324 21.8707 46.9107 21.7854C46.4693 21.7587 46.1333 21.38 46.16 20.9387C46.1867 20.4974 46.5653 20.1614 47.0067 20.188C48.668 20.288 50.3067 20.7827 51.7453 21.6187C53.184 22.4547 54.4253 23.6334 55.3347 25.028C57.4533 28.3414 57.4627 32.284 57.4733 36.096C57.4813 38.9893 57.488 41.9814 58.4373 44.6054C58.9013 45.8907 59.6773 48.0427 58.1547 49.2547C57.2867 49.9494 56.208 49.8133 55.34 49.7027C54.7053 49.6227 54.1067 49.5467 53.7267 49.7733C53.668 49.8147 53.4773 50.0014 53.3253 50.1507C52.58 50.888 51.384 52.064 49.9387 52.064Z" fill="var(--hm-stroke, #000000)"/>
<path d="M45.2787 52.3187C44.868 52.3187 44.5173 52.0027 44.4827 51.5853C44.3133 49.5773 44.704 48.6573 45.5333 46.9307C45.8373 46.3 46.412 46.1613 46.756 46.0787C46.8307 46.06 46.9013 46.044 46.9627 46.024C47.28 45.924 47.5933 45.8093 47.896 45.6813C48.508 45.428 49.0827 45.1013 49.6107 44.7093C50.6747 43.9053 51.416 42.8227 51.6907 41.6667C51.832 41.084 52.024 39.668 50.7747 39.0373C50.2293 38.7613 49.6947 38.6533 48.2293 39.9413C47.8973 40.2333 47.392 40.2 47.1 39.868C46.808 39.536 46.8413 39.0307 47.1733 38.7387C49.2773 36.8893 50.4947 37.1027 51.4947 37.608C53.0467 38.392 53.7173 40.0893 53.2453 42.0387C52.8853 43.5533 51.9347 44.9573 50.5693 45.988C49.932 46.4613 49.2413 46.8533 48.5133 47.1547C48.168 47.3 47.8067 47.4333 47.4427 47.5467C47.332 47.5813 47.2253 47.608 47.132 47.6307C47.0733 47.6453 46.9973 47.6627 46.948 47.6787C46.1813 49.2787 45.944 49.88 46.0773 51.448C46.1147 51.888 45.788 52.276 45.348 52.312C45.324 52.3173 45.3013 52.3187 45.2787 52.3187Z" fill="var(--hm-stroke, #000000)"/>
<path d="M35.884 53.4987C35.4587 53.4987 35.1053 53.164 35.0853 52.7347C35.0427 51.796 35.0333 51.324 35.06 50.68C33.4573 50.9893 31.8253 50.7053 30.5667 50.4853C28.5333 50.1267 26.9533 49.4027 25.736 48.2707C23.4987 46.1867 22.4547 42.808 22.8707 38.9987C23.0267 37.5867 23.608 35.4853 24.428 33.3773C24.588 32.9653 25.052 32.7613 25.464 32.9213C25.876 33.0813 26.08 33.5453 25.92 33.9573C25.0107 36.296 24.5707 38.1853 24.4613 39.1733C24.1 42.4733 24.9613 45.3627 26.8267 47.0987C27.824 48.0267 29.1 48.6013 30.8427 48.908C32.624 49.2187 34.2133 49.428 35.62 48.8533C35.8747 48.7493 36.1653 48.784 36.3893 48.944C36.6133 49.1053 36.7387 49.3693 36.7213 49.644C36.636 50.9853 36.6213 51.2813 36.6853 52.6573C36.7053 53.0987 36.364 53.4733 35.9227 53.4933C35.9093 53.4987 35.8973 53.4987 35.884 53.4987Z" fill="var(--hm-stroke, #000000)"/>
<path d="M29.124 37.3467C29.6395 37.3467 30.0573 36.8393 30.0573 36.2134C30.0573 35.5874 29.6395 35.08 29.124 35.08C28.6085 35.08 28.1907 35.5874 28.1907 36.2134C28.1907 36.8393 28.6085 37.3467 29.124 37.3467Z" fill="var(--hm-stroke, #000000)"/>
<path d="M33.6573 37.66C34.1728 37.66 34.5907 37.1526 34.5907 36.5267C34.5907 35.9008 34.1728 35.3933 33.6573 35.3933C33.1419 35.3933 32.724 35.9008 32.724 36.5267C32.724 37.1526 33.1419 37.66 33.6573 37.66Z" fill="var(--hm-stroke, #000000)"/>
</g><g data-hm-layer-slot="item" data-hm-part-id="hm1-p-000041" data-hm-selection-slot="item" data-hm-source-group-id="item" data-hm-source-part-id="000" transform="translate(0, 0)">
</g><g data-hm-layer-slot="glasses" data-hm-part-id="hm1-p-000056" data-hm-selection-slot="glasses" data-hm-source-group-id="glasses" data-hm-source-part-id="000" transform="translate(0, 0)"></g></svg>