<svg xmlns="http://www.w3.org/2000/svg" width="88" height="88" viewBox="-4 -4.5 88 88" style="--hm-bottom:#9F86C0;--hm-clothes:#E8D5F2;--hm-hair:#3B2A26;--hm-skin:#FBE3D3;--hm-stroke:#201E1D"><g data-hm-layer-slot="bottom" data-hm-part-id="hm1-p-000038" data-hm-selection-slot="bottom" data-hm-source-group-id="bottom" data-hm-source-part-id="006" transform="translate(0, 85)">
<path d="M51.188 90.4502C50.3787 92.2899 48.8813 93.737 47.016 94.4819C45.152 95.2269 43.0707 95.2108 41.2187 94.4352L41.108 94.3898C40.3187 96.6593 39.1427 98.802 38.6453 101.152C38.568 101.511 38.512 101.905 38.684 102.23C38.9307 102.696 39.5253 102.827 40.0467 102.898C41.8533 103.165 43.7293 103.385 45.4787 102.862C48.4 101.994 50.4 99.1558 51.1627 96.1987C51.7213 94.0414 51.7467 91.8026 51.6533 89.5651L51.188 90.4502Z" fill="#000000"/>
<path d="M36.6134 89.6839C35.472 90.8214 34.0814 91.6771 32.5534 92.1844C31.0254 92.6917 29.4 92.8372 27.8054 92.6076C27.3067 92.5529 26.824 92.3993 26.3867 92.1537C25.9614 91.8867 25.6174 91.4582 25.5667 90.9602V90.4743C23.7694 91.9962 21.9587 93.4887 21.348 95.6941C21.2267 96.1347 21.164 96.6206 21.356 97.0291C21.72 97.8101 22.752 97.9436 23.612 97.9636C25.8707 98.0344 28.1614 98.0971 30.3574 97.5711C32.5534 97.0451 34.684 95.8276 35.824 93.8745C36.7307 92.3246 36.936 90.4743 37.1067 88.6867L36.6134 89.6839Z" fill="#000000"/>
<path d="M41.136 57.9911C41.6747 67.4535 41.9933 76.9254 42.0933 86.4065C42.116 88.5679 42.124 90.7546 41.6133 92.8546C41.4987 93.3272 41.3587 93.7891 41.2027 94.2523L41.268 94.4272C43.12 95.2015 45.2013 95.2189 47.0653 94.4739C48.9293 93.729 50.4267 92.2819 51.2373 90.4422L51.6133 89.7227C51.5787 88.8496 51.6133 87.9391 51.5693 87.0714C51.0227 77.2738 51.2333 67.4469 51.4627 57.6413" fill="var(--hm-skin, #FFFFFF)"/>
<path d="M29.0853 57.1113L30.0187 80.5472C30.092 82.4162 30.152 84.368 29.4133 86.0901C28.6493 87.8697 27.1387 89.178 25.6187 90.4649V90.9522C25.6693 91.4501 26.0187 91.8867 26.44 92.1457C26.8773 92.3913 27.3587 92.5448 27.8573 92.5996C29.452 92.8279 31.0773 92.6837 32.6053 92.1764C34.1333 91.6691 35.524 90.8133 36.6667 89.6759C36.808 89.5584 36.9333 89.4236 37.0427 89.2754C37.1187 89.0912 37.1587 88.8936 37.16 88.6934C38.1387 78.4366 38.6067 68.1344 38.5613 57.8255" fill="var(--hm-skin, #FFFFFF)"/>
<path d="M53.4853 6.82452C56.7906 23.0247 59.2186 39.3919 60.7586 55.8551C56.0626 56.851 51.3333 57.8509 46.5333 58.0244C42.968 58.1579 39.404 57.8229 35.8506 57.4904L19.9266 56.0126C19.9266 56.0126 21.2706 22.8832 26.5333 7.64288" fill="var(--hm-bottom, #000000)"/>
<path fill-rule="evenodd" clip-rule="evenodd" d="M39.3611 58.6056C39.6984 58.6322 40.0364 58.6574 40.3748 58.6809C40.8879 67.8792 41.1982 77.2068 41.2946 86.4159L41.2948 86.4309C41.3147 88.391 41.3373 90.6103 40.8373 92.6663C40.5218 93.963 40.0086 95.1911 39.4655 96.491L39.4491 96.5303C38.8565 97.9483 38.244 99.4141 37.912 100.977C37.8426 101.304 37.6988 101.982 38.0266 102.596C38.4922 103.478 39.5362 103.621 39.9767 103.681L39.98 103.681C41.0093 103.834 42.0733 103.97 43.136 103.97C44.0173 103.97 44.8986 103.875 45.76 103.62C49.2386 102.579 51.2586 99.2012 51.988 96.387C52.7453 93.4633 52.5693 90.4329 52.3986 87.5012L52.3706 87.0206C51.8261 77.243 52.0427 67.2003 52.2507 58.2809C55.1877 57.8526 58.086 57.2381 60.9253 56.636C61.3227 56.5519 61.5933 56.1821 61.556 55.7776C60.0187 39.3518 57.568 22.8258 54.2693 6.66163C54.1813 6.22775 53.7587 5.94874 53.3253 6.03685C52.892 6.12496 52.6133 6.54815 52.7013 6.98203C55.94 22.8578 58.36 39.0821 59.8947 55.2169C55.52 56.1434 51.012 57.0592 46.5027 57.2221C43.0027 57.3543 39.4227 57.0192 35.9613 56.6948L20.76 55.2837C20.868 53.0115 21.244 45.9066 22.0533 37.6109C23.348 24.3477 25.1587 14.0749 27.2893 7.90318C27.4333 7.48532 27.212 7.02875 26.7947 6.88457C26.3773 6.74039 25.9213 6.962 25.7773 7.37986C20.5373 22.5575 19.1827 54.6215 19.128 55.9792C19.1107 56.4051 19.4293 56.7709 19.8533 56.8096L28.3033 57.5938L29.2191 80.591C29.2843 82.2766 29.3582 84.1852 28.6773 85.7724C27.9673 87.4263 26.516 88.6551 24.9802 89.9553L24.976 89.959L24.973 89.9615C23.1632 91.4946 21.2916 93.0802 20.6293 95.4725C20.4226 96.2228 20.44 96.8409 20.684 97.3602C21.3017 98.6853 22.9938 98.7418 23.6359 98.7632L23.6386 98.7633L23.7392 98.7663L23.7406 98.7663C24.4699 98.7881 25.2065 98.81 25.948 98.81C27.492 98.81 29.0533 98.7166 30.5986 98.3388C33.296 97.6833 35.416 96.2375 36.5666 94.2683C37.52 92.6343 37.7586 90.8027 37.9533 88.7521C38.9053 78.7732 39.379 68.6347 39.3611 58.6056ZM44.892 58.8548C43.9217 58.8548 42.951 58.8259 41.9827 58.7776C42.492 67.9392 42.7989 77.228 42.8946 86.3998C42.916 88.4571 42.94 90.7893 42.392 93.0455C42.322 93.3335 42.2431 93.6186 42.1572 93.9008C43.6658 94.3802 45.2818 94.3236 46.7693 93.729C48.4493 93.0575 49.776 91.7759 50.5053 90.1192C50.5888 89.9302 50.7362 89.7896 50.9109 89.7115C50.8831 89.0066 50.8423 88.3027 50.8019 87.6048L50.7733 87.1114C50.2299 77.3625 50.4387 67.3809 50.6449 58.4949C49.2909 58.6574 47.9295 58.7731 46.5627 58.8228C46.0067 58.8454 45.4493 58.8548 44.892 58.8548ZM40.932 97.1333C41.1682 96.5693 41.4076 95.9971 41.6314 95.4143C42.4764 95.6879 43.3495 95.825 44.2226 95.825C45.2853 95.825 46.348 95.6234 47.3626 95.2175C48.7868 94.6483 50.0053 93.7222 50.9202 92.5349C50.868 93.708 50.7286 94.8654 50.4386 95.9838C49.4933 99.6324 47.1653 101.527 45.3013 102.085C43.7226 102.556 41.9946 102.36 40.2053 102.095C39.5906 102.013 39.4666 101.895 39.44 101.844C39.416 101.798 39.4013 101.668 39.4773 101.31C39.7786 99.89 40.3386 98.551 40.932 97.1333ZM35.8162 58.2917L35.815 58.2916L35.8133 58.2914L35.776 58.2874L29.9104 57.743L30.8173 80.5152C30.8906 82.3748 30.9733 84.4815 30.148 86.4065C29.3585 88.2436 27.8892 89.5835 26.4064 90.8463C26.4075 90.8544 26.4084 90.8626 26.4093 90.8708C26.4306 91.0737 26.5986 91.302 26.84 91.4555C27.1813 91.6437 27.5506 91.7612 27.9386 91.8039C27.948 91.8053 27.9573 91.8066 27.9653 91.808C29.4293 92.0189 30.9466 91.884 32.3506 91.4181C33.7546 90.9522 35.052 90.1539 36.1 89.1099C36.168 89.0421 36.2451 88.9891 36.3274 88.9508C36.3389 88.8351 36.3502 88.7186 36.3613 88.6013C37.3125 78.627 37.7836 68.4942 37.7608 58.4705C37.1092 58.4125 36.4607 58.3519 35.8162 58.2917ZM35.9829 91.3157C35.8104 92.0931 35.5647 92.8113 35.1853 93.4607C34.2693 95.028 32.46 96.2388 30.22 96.7835C28.108 97.2971 25.8629 97.2281 23.6922 97.1614L23.688 97.1613C22.7786 97.1319 22.2693 96.9757 22.132 96.6807C22.0813 96.5726 22.0466 96.3483 22.1706 95.8997C22.6079 94.32 23.7758 93.1192 25.1252 91.9396C25.3349 92.2896 25.64 92.5985 26.016 92.8292L26.044 92.8452C26.5746 93.143 27.1493 93.3272 27.752 93.3953C28.272 93.4687 28.7986 93.5061 29.324 93.5061C30.5213 93.5061 31.72 93.3138 32.8546 92.94C33.9727 92.569 35.033 92.0168 35.9829 91.3157Z" fill="var(--hm-stroke, #000000)"/>
</g><g data-hm-layer-slot="body" data-hm-part-id="hm1-p-000027" data-hm-selection-slot="body" data-hm-source-group-id="body" data-hm-source-part-id="003" transform="translate(0, 51)">
<path d="M45.2493 0C45.3693 1.34667 45.92 4.38933 47.9693 3.93333L48.1893 4.26667C48.0893 6.356 47.0306 7.82933 45.372 9.356C43.6866 10.8827 41.5373 11.8 39.2693 11.9613C37.2693 12.108 35.1426 11.6293 33.6466 10.288C32.1506 8.94667 31.364 7.088 32.3546 5.49467H32.4986C32.9493 5.508 33.364 5.272 33.7453 5.032C34.2306 4.72533 35.232 3.468 35.532 3.10667C35.932 2.588 36.0946 0.621333 36.3 0H45.2493V0Z" fill="var(--hm-skin, #FFFFFF)"/>
<path d="M56.9453 16.4227C56.6547 16.892 56.34 17.3453 56.004 17.7827C54.8533 19.268 53.3533 20.544 51.56 21.116L51.3013 21.5267C51.1573 33.6707 51.756 45.824 52.9427 58.3267C52.4813 58.3653 52.044 58.5467 51.6893 58.8453C51.3347 59.144 51.0813 59.544 50.964 59.992C50.8467 60.44 50.8693 60.9133 51.032 61.3467C51.1933 61.78 51.4853 62.1533 51.868 62.4147C52.2813 62.6947 52.7773 62.8307 53.2013 63.096C55.1453 64.308 54.912 67.6507 56.9667 68.6613C58.4827 69.4067 60.3827 68.2693 61.0693 66.724C61.756 65.1787 61.568 63.4067 61.364 61.7293C60.4933 54.5933 58.4173 33.6907 58.0547 29.316L57.0347 17.0133L56.9453 16.4227Z" fill="var(--hm-skin, #FFFFFF)"/>
<path d="M23.3333 16.7827C21.352 29.4107 19.388 41.7453 18.4293 54.964C17.9987 54.912 17.5613 54.9867 17.1707 55.176C16.78 55.3653 16.452 55.664 16.2267 56.0347C16.0013 56.4053 15.8853 56.8333 15.896 57.2667C15.9053 57.7013 16.04 58.1227 16.2827 58.4827C16.4267 58.6933 16.6067 58.8827 16.7387 59.0987C17.076 59.6613 17.0573 60.3613 17.0173 61.0173C16.9427 62.2427 16.8453 63.5333 17.372 64.6427C17.8987 65.752 19.3067 66.548 20.3853 65.9613C21.1373 65.5507 21.46 64.6573 21.7187 63.8413C22.0827 62.764 22.392 61.668 22.644 60.5587C22.9307 59.192 23.044 57.7947 23.1587 56.4013L23.8253 48.2307L25.3333 19.356C24.9267 18.272 24.268 17.3013 23.412 16.5213L23.3333 16.7827Z" fill="var(--hm-skin, #FFFFFF)"/>
<path d="M58.944 38.596C60.5306 41.872 61.8 45.116 61.8 45.116C61.9293 45.5013 61.924 45.9187 61.7853 46.3C61.4213 47.0453 60.1653 47.0747 59.7653 46.3493L58.944 38.596Z" fill="var(--hm-clothes, #FFFFFF)"/>
<path d="M25.3333 19.356C24.6933 17.656 23.444 16.2547 21.8293 15.4227C23.3307 14.4893 24.088 12.756 24.992 11.2347C27.1773 7.58533 30.5533 4.8 34.5507 3.348C34.168 3.768 33.532 4.51466 33.6173 5.37733C33.6733 5.98 34.0893 6.50533 34.6053 6.82266C35.1213 7.14 35.7253 7.27733 36.324 7.36533C38.844 7.724 41.4133 7.284 43.6693 6.10666C44.8693 5.47466 46.0347 4.54133 46.3107 3.088C48.1253 2.71466 50 3.60533 51.3493 4.87466C52.6987 6.144 53.6507 7.76533 54.732 9.27466C55.8133 10.784 57.1053 12.2333 58.828 12.916C57.9987 14.6027 57.1613 16.3013 56.0107 17.788C54.86 19.2747 53.36 20.5493 51.5667 21.1213L51.308 21.532C51.204 30.3067 51.488 39.0853 52.1 47.9973L52.0933 48.072C50.3893 49.492 47.8747 49.296 45.7307 48.7267C43.5867 48.1573 41.4227 47.284 39.2267 47.6013C38.1427 47.7587 37.1187 48.2027 36.04 48.3893C32.5947 48.9853 29.0787 46.9227 25.6507 47.604C24.5013 47.8347 23.3093 48.368 22.2093 47.9653C20.9053 47.4893 20.4067 45.5893 21.3093 44.5347C23.212 36.4933 24.628 28.3453 25.5493 20.1347L25.3333 19.356Z" fill="var(--hm-clothes, #FFFFFF)"/>
<path d="M48.6733 49.9573C47.7187 49.9573 46.664 49.804 45.5133 49.4987C45.0773 49.3827 44.636 49.2533 44.2107 49.1293C42.516 48.632 40.9147 48.1627 39.3293 48.392C38.8147 48.4667 38.3027 48.6173 37.76 48.776C37.2493 48.9253 36.72 49.0813 36.1653 49.1773C34.3213 49.496 32.5067 49.124 30.752 48.7627C29.0173 48.4067 27.38 48.0707 25.7973 48.388C25.5373 48.44 25.2733 48.508 24.9933 48.5813C24.0547 48.8267 22.9907 49.104 21.9253 48.716C21.0653 48.4013 20.4013 47.6347 20.148 46.6653C19.9147 45.772 20.0693 44.86 20.56 44.1787C22.676 35.2147 24.1933 26.024 25.0707 16.856C25.1133 16.416 25.504 16.0947 25.9427 16.136C26.3827 16.1787 26.7053 16.5693 26.6627 17.008C25.772 26.3053 24.2293 35.628 22.076 44.716C22.0467 44.84 21.988 44.9547 21.9053 45.052C21.6533 45.3467 21.5747 45.7973 21.6947 46.2587C21.816 46.7213 22.1067 47.0773 22.472 47.212C23.0667 47.4293 23.8053 47.236 24.588 47.032C24.8787 46.956 25.1787 46.8773 25.4827 46.8173C27.3827 46.436 29.2587 46.8213 31.0733 47.1947C32.756 47.54 34.3467 47.8667 35.892 47.6C36.3573 47.52 36.82 47.384 37.3093 47.24C37.8813 47.072 38.472 46.8987 39.1 46.808C41.032 46.528 42.8773 47.0693 44.6613 47.5933C45.0773 47.7147 45.508 47.8413 45.924 47.952C48.4653 48.6267 50.364 48.46 51.5693 47.456C51.9093 47.1733 52.4133 47.2187 52.696 47.5587C52.9787 47.8987 52.9333 48.4027 52.5933 48.6853C51.5773 49.532 50.2653 49.9573 48.6733 49.9573Z" fill="var(--hm-stroke, #000000)"/>
<path d="M51.5667 21.9214C51.228 21.9214 50.9133 21.704 50.8053 21.364C50.6707 20.9427 50.904 20.4934 51.324 20.3587C53.1733 19.7694 54.5493 18.368 55.3787 17.2973C56.3213 16.08 57.06 14.6814 57.752 13.2907C56.1293 12.4014 54.952 10.9547 54.0827 9.74002C53.8133 9.36402 53.5507 8.97868 53.296 8.60668C52.5053 7.44935 51.7587 6.35735 50.8027 5.45735C49.604 4.32935 48.196 3.73468 46.9453 3.80935C46.532 5.00668 45.5587 6.01602 44.0427 6.81335C41.62 8.07735 38.9133 8.54135 36.212 8.15602C35.6213 8.06935 34.86 7.91735 34.1867 7.50268C33.4067 7.02268 32.896 6.25602 32.8213 5.44935C32.8133 5.37068 32.8093 5.29468 32.8093 5.22135C29.7533 6.72402 27.312 8.91602 25.6787 11.644C25.52 11.9107 25.3667 12.1827 25.2053 12.472C24.6387 13.48 24.0573 14.5147 23.2187 15.336C24.5147 16.2667 25.512 17.56 26.0827 19.072C26.2387 19.4853 26.0293 19.9467 25.616 20.1027C25.2027 20.2587 24.7413 20.0494 24.5853 19.636C24.0133 18.1187 22.9053 16.8747 21.464 16.132C21.208 16 21.0427 15.7414 21.0307 15.4534C21.0187 15.1654 21.1627 14.8934 21.408 14.7414C22.4613 14.0867 23.1173 12.9214 23.8107 11.6867C23.9707 11.4027 24.136 11.1094 24.3053 10.824C26.4787 7.19335 29.9333 4.43868 34.296 2.85335C34.6427 2.72802 35.0293 2.85469 35.2333 3.16002C35.4373 3.46535 35.408 3.87202 35.16 4.14402C35.0933 4.21735 35.02 4.29202 34.944 4.36935C34.56 4.75868 34.3827 4.97735 34.4133 5.29735C34.4413 5.60402 34.676 5.92535 35.024 6.14002C35.4467 6.40002 35.9773 6.50535 36.44 6.57335C38.804 6.91068 41.1773 6.50268 43.2987 5.39735C44.612 4.70535 45.3413 3.90002 45.524 2.93869C45.584 2.62002 45.8307 2.36935 46.1493 2.30402C48.0173 1.92002 50.1653 2.66268 51.8973 4.29202C52.98 5.31068 53.812 6.52802 54.616 7.70535C54.8653 8.07068 55.124 8.44802 55.3827 8.80935C56.2587 10.032 57.476 11.52 59.1227 12.1734C59.3307 12.256 59.4933 12.4214 59.5747 12.6294C59.6547 12.8374 59.6453 13.0694 59.5467 13.2707C58.712 14.9667 57.8507 16.7213 56.644 18.2787C55.256 20.072 53.5853 21.3187 51.8107 21.884C51.7293 21.9094 51.6467 21.9214 51.5667 21.9214Z" fill="var(--hm-stroke, #000000)"/>
<path d="M60.7547 47.676C60.0307 47.676 59.3867 47.3187 59.064 46.7347C58.8507 46.348 58.9907 45.8614 59.3787 45.648C59.7653 45.4347 60.252 45.5747 60.4653 45.9627C60.504 46.032 60.6307 46.08 60.7693 46.076C60.8907 46.0734 61.0027 46.0307 61.0507 45.972C61.108 45.7814 61.1067 45.576 61.0467 45.3867C60.936 45.1054 59.712 42.0187 58.224 38.944C58.032 38.5467 58.1973 38.068 58.5947 37.8747C58.992 37.6827 59.4707 37.848 59.664 38.2467C61.2453 41.5134 62.532 44.7907 62.5453 44.824C62.5507 44.836 62.5547 44.848 62.5587 44.8614C62.744 45.416 62.7373 46.024 62.5373 46.5734C62.528 46.6 62.516 46.6254 62.504 46.6507C62.204 47.264 61.5547 47.6574 60.8093 47.676C60.792 47.676 60.7733 47.676 60.7547 47.676Z" fill="var(--hm-stroke, #000000)"/>
<path d="M57.9893 69.6947C57.5067 69.6947 57.0387 69.5894 56.6133 69.38C55.2773 68.7227 54.736 67.3547 54.2573 66.1467C53.8653 65.1574 53.496 64.2227 52.7773 63.7747C52.624 63.6787 52.4387 63.596 52.2427 63.508C51.9867 63.3934 51.6947 63.264 51.4187 63.076C50.8947 62.72 50.5 62.2187 50.2773 61.6254C50.0547 61.032 50.0227 60.3947 50.184 59.7827C50.3453 59.1707 50.6867 58.632 51.172 58.224C51.4453 57.9947 51.7533 57.8174 52.0827 57.6974C50.884 44.844 50.368 33 50.504 21.5107C50.5093 21.072 50.8667 20.72 51.304 20.72C51.3067 20.72 51.3107 20.72 51.3133 20.72C51.7547 20.7254 52.1093 21.088 52.104 21.5294C51.9667 33.1694 52.5013 45.1787 53.7413 58.244C53.7613 58.4574 53.696 58.6694 53.5587 58.8334C53.4213 58.9974 53.224 59.1 53.0107 59.1174C52.7107 59.1414 52.432 59.2574 52.2013 59.4507C51.9707 59.644 51.8093 59.8987 51.7333 60.1894C51.6573 60.48 51.672 60.7827 51.7773 61.064C51.8827 61.3454 52.0707 61.5827 52.3187 61.752C52.4773 61.86 52.6813 61.9507 52.8973 62.0467C53.124 62.148 53.38 62.2627 53.628 62.4174C54.7933 63.144 55.3 64.4254 55.748 65.5574C56.156 66.5867 56.54 67.5587 57.3213 67.9427C57.8187 68.1867 58.3293 68.092 58.6707 67.968C59.3747 67.7134 60.0293 67.0974 60.34 66.3987C60.9133 65.1094 60.7907 63.628 60.572 61.8254C59.7093 54.752 57.636 33.9254 57.26 29.3814L56.24 17.0787C56.204 16.6387 56.5307 16.252 56.9707 16.2147C57.4107 16.18 57.7973 16.5054 57.8347 16.9454L58.8547 29.248C59.2307 33.7827 61.3 54.5707 62.1613 61.6307C62.3573 63.244 62.6013 65.2507 61.804 67.0467C61.3187 68.14 60.328 69.068 59.2187 69.4707C58.8053 69.62 58.392 69.6947 57.9893 69.6947Z" fill="var(--hm-stroke, #000000)"/>
<path d="M19.5893 66.9587C19.3027 66.9587 19.0093 66.912 18.7187 66.8173C17.8427 66.532 17.0493 65.8307 16.6493 64.9867C16.0493 63.724 16.136 62.3187 16.212 61.0773L16.2187 60.9693C16.2533 60.404 16.2667 59.868 16.052 59.5107C16.0067 59.436 15.9333 59.344 15.856 59.2467C15.7827 59.1547 15.7 59.0493 15.6213 58.936C15.2893 58.444 15.108 57.876 15.0947 57.2867C15.0813 56.6987 15.236 56.1213 15.5427 55.6187C15.8493 55.116 16.2907 54.7147 16.82 54.4573C17.0947 54.324 17.3853 54.2333 17.684 54.1853C18.6373 41.536 20.464 29.896 22.3973 17.5867L22.5427 16.6587C22.6107 16.2227 23.02 15.9253 23.4573 15.992C23.8933 16.06 24.192 16.4693 24.124 16.9067L23.9787 17.8347C22.0147 30.344 20.16 42.1613 19.228 55.0227C19.212 55.2413 19.108 55.4427 18.9387 55.5813C18.7707 55.72 18.552 55.7853 18.3347 55.7587C18.0547 55.7253 17.7733 55.7733 17.52 55.896C17.2667 56.0187 17.0547 56.2107 16.9093 56.452C16.7627 56.692 16.6893 56.968 16.6947 57.2493C16.7013 57.5307 16.788 57.8027 16.9453 58.036C16.9893 58.1 17.048 58.1747 17.1093 58.252C17.208 58.3773 17.32 58.5173 17.42 58.6813C17.872 59.436 17.8627 60.2733 17.8147 61.0653L17.808 61.1747C17.74 62.2733 17.6707 63.4093 18.0933 64.2987C18.3093 64.752 18.748 65.144 19.2133 65.2947C19.4187 65.3613 19.7227 65.4093 20.0027 65.2573C20.4787 64.9973 20.7347 64.2947 20.956 63.5987C20.9573 63.5933 20.9587 63.5893 20.9613 63.584C21.3147 62.5387 21.6173 61.464 21.8627 60.3867C22.136 59.0827 22.2493 57.7053 22.3587 56.3733L23.028 48.1653C23.064 47.7253 23.4507 47.396 23.8907 47.4333C24.3307 47.4693 24.6587 47.856 24.6227 48.296L23.9533 56.5053C23.84 57.8893 23.7213 59.32 23.428 60.7227C23.4267 60.7267 23.4267 60.732 23.4253 60.736C23.168 61.8653 22.8507 62.9933 22.48 64.0893C22.244 64.8347 21.848 66.0733 20.7693 66.6627C20.408 66.86 20.0053 66.9587 19.5893 66.9587Z" fill="var(--hm-stroke, #000000)"/>
</g><g data-hm-layer-slot="head" data-hm-part-id="hm1-p-000010" data-hm-selection-slot="head" data-hm-source-group-id="head" data-hm-source-part-id="010" transform="translate(0, -0.5)">
<path d="M26.0587 31.6613C26.8227 29.3427 28.6947 27.528 30.7987 26.2867C32.9947 24.992 35.7653 24.244 38.0867 25.2973C37.7533 25.9973 38.1507 27.2027 38.9467 27.4707L40.1053 28.3787C40.8253 28.0307 41.7267 28.2453 42.3453 28.7533C42.964 29.2613 43.3373 30.0067 43.5813 30.768C44.08 32.3213 44.1027 33.9853 44.0187 35.6147C43.9707 36.5107 43.8987 37.4427 44.2293 38.2813C44.56 39.12 44.7987 39.288 44.4507 39.8293L45.284 49.3053C47.0253 50.34 47.9387 51.9587 48.896 52.1667C50.5773 52.5333 52.136 50.356 52.672 50.0333C53.9533 49.2667 55.844 50.504 57.012 49.5747C58.0627 48.7373 57.496 47.088 57.0387 45.824C54.788 39.596 57.5853 31.992 54.0187 26.412C53.1733 25.1147 52.0347 24.032 50.696 23.2547C49.3573 22.476 47.8533 22.0227 46.308 21.9293L42.5333 20.248C41.6507 18.8347 39.7227 18.4467 38.0773 18.712C36.432 18.9773 34.908 19.7427 33.284 20.116C32.3307 20.3347 31.3467 20.416 30.4067 20.6893C28.6667 21.2 27.164 22.3267 25.8773 23.6C22.5333 26.9333 20.356 31.3867 19.68 36.0547C19.004 40.7227 19.8133 45.58 21.852 49.8333C22.4293 51.0333 23.132 52.2253 24.2067 53.0133C25.2813 53.8013 26.804 54.1027 27.9613 53.4413C28.732 53 29.4107 52.148 30.2867 52.296C30.724 52.3707 31.0747 52.6893 31.4867 52.8627C32.324 53.2173 33.3227 52.908 34.02 52.3293L35.8667 51.8507L35.944 49.6027" fill="var(--hm-hair, #000000)"/>
<path d="M45.2987 52.1947C45.1453 50.3707 45.4813 48.9373 46.2747 47.2867C46.4533 46.9133 46.8413 46.9173 47.224 46.796C47.5627 46.6893 47.8987 46.5667 48.2267 46.428C48.8947 46.1507 49.5253 45.792 50.1067 45.3613C51.256 44.4933 52.1507 43.2747 52.488 41.8613C52.7933 40.58 52.5787 39.0547 51.148 38.3333C50.1453 37.8267 49.2453 38.0067 47.716 39.3507L46.316 39.6C45.444 39.812 44.5613 39.116 44.2293 38.2827C43.8973 37.4493 43.9707 36.516 44.0187 35.616C44.1027 33.9867 44.08 32.3227 43.5813 30.7693C43.3373 30.008 42.964 29.2613 42.3453 28.7547C41.7267 28.248 40.8253 28.032 40.1053 28.38L38.9467 27.4707C38.1467 27.204 37.7533 25.9987 38.0867 25.2987C35.7653 24.2453 32.9947 24.9933 30.7987 26.288C28.6947 27.528 26.8227 29.344 26.0587 31.6627L25.3333 33.4667C24.5333 34.6667 24.4 36.1333 24 37.6C24 38.0213 22.3787 43.712 26.1333 47.4667C27.4667 48.8 29.2 49.3333 31 49.7333C32.6147 49.9827 34.3787 50.2333 35.9333 49.6C35.844 50.988 35.8307 51.9787 35.8947 53.368" fill="var(--hm-skin, #FFFFFF)"/>
<path d="M26.5267 54.6C25.5773 54.6 24.5813 54.28 23.7347 53.6587C22.4627 52.7253 21.676 51.3093 21.132 50.18C19 45.732 18.204 40.6747 18.8893 35.94C19.5987 31.0387 21.8814 26.456 25.3134 23.0333C26.9414 21.4227 28.532 20.4053 30.1827 19.9213C30.7773 19.748 31.3747 19.648 31.9507 19.552C32.352 19.4853 32.732 19.4213 33.1067 19.336C33.78 19.1813 34.436 18.9547 35.1307 18.7147C36.0307 18.404 36.9627 18.0813 37.952 17.9227C39.6587 17.6467 42.0627 17.98 43.2134 19.8253C43.448 20.2 43.3334 20.6933 42.9587 20.928C42.584 21.1627 42.0907 21.048 41.856 20.6733C41.36 19.8787 40.0387 19.208 38.2054 19.504C37.3534 19.6413 36.5267 19.9267 35.652 20.2293C34.948 20.472 34.22 20.724 33.464 20.8987C33.0427 20.9947 32.6214 21.0653 32.2147 21.1333C31.6587 21.2267 31.1347 21.3133 30.6307 21.46C29.244 21.8667 27.8733 22.7547 26.4413 24.1707C23.2533 27.348 21.1334 31.6107 20.4734 36.172C19.8334 40.596 20.5787 45.3267 22.5747 49.4907C23.0653 50.5107 23.7 51.652 24.6814 52.3707C25.596 53.0413 26.7827 53.1973 27.5667 52.7493C27.7494 52.6453 27.9413 52.4987 28.1453 52.3453C28.732 51.9013 29.4627 51.348 30.4214 51.5107C30.8374 51.5813 31.172 51.7787 31.4413 51.9373C31.5693 52.0133 31.6907 52.084 31.7987 52.1293C32.356 52.3653 33.06 52.092 33.5107 51.7173C33.8507 51.436 34.3547 51.4827 34.6374 51.8227C34.92 52.1627 34.872 52.6667 34.532 52.9493C33.5267 53.784 32.208 54.0413 31.176 53.604C30.972 53.5173 30.7907 53.4107 30.6307 53.3173C30.4507 53.2107 30.28 53.1107 30.1547 53.0893C29.8774 53.0427 29.5054 53.324 29.1107 53.6227C28.876 53.8 28.632 53.984 28.3614 54.14C27.8134 54.4467 27.1813 54.6 26.5267 54.6Z" fill="var(--hm-stroke, #000000)"/>
<path d="M49.2933 53.0067C49.108 53.0067 48.92 52.988 48.7267 52.9453C47.5067 52.68 46.1773 50.8587 46.3533 48.9947C46.3947 48.5547 46.7867 48.232 47.2253 48.2733C47.6653 48.3147 47.988 48.7053 47.9467 49.1453C47.8547 50.1133 48.5987 51.28 49.0667 51.3813C49.92 51.5667 50.9467 50.5573 51.56 49.9533C51.8453 49.6733 52.0507 49.4707 52.26 49.344C53.116 48.832 54.0613 48.952 54.8973 49.0573C55.6907 49.1573 56.1947 49.2 56.5133 48.9453C57.0907 48.4853 56.7187 47.284 56.2867 46.092C55.244 43.2067 55.236 40.0733 55.228 37.044C55.2187 33.2947 55.2093 29.7547 53.3453 26.8387C52.576 25.6573 51.52 24.6533 50.2947 23.9413C49.0693 23.2293 47.6747 22.808 46.2613 22.724C45.82 22.6973 45.484 22.3187 45.5107 21.8773C45.5373 21.436 45.916 21.1 46.3573 21.1267C48.02 21.2267 49.66 21.7213 51.1 22.5587C52.54 23.396 53.7813 24.576 54.6907 25.972C56.8093 29.2853 56.8187 33.228 56.8293 37.0413C56.8373 39.9333 56.8453 42.9253 57.7933 45.5493C58.2587 46.8333 59.036 48.984 57.5133 50.1973C56.644 50.892 55.5653 50.756 54.6987 50.6467C54.064 50.5667 53.4653 50.4907 53.0867 50.7173C53.028 50.7573 52.8373 50.9453 52.6853 51.0947C51.9333 51.8307 50.7387 53.0067 49.2933 53.0067Z" fill="var(--hm-stroke, #000000)"/>
<path d="M45.9947 40.4373C44.8733 40.4373 43.876 39.564 43.4853 38.5747C43.108 37.6173 43.164 36.6053 43.212 35.7133L43.22 35.572C43.292 34.1613 43.3027 32.5147 42.82 31.012C42.576 30.2493 42.2547 29.7133 41.8373 29.3707C41.5 29.0933 41.0813 29.072 40.596 29.3067C40.1987 29.4987 39.72 29.332 39.528 28.9347C39.336 28.5373 39.5027 28.0587 39.9 27.8667C40.9507 27.3587 42.0267 27.456 42.8533 28.1347C43.5147 28.6773 44.0027 29.4587 44.344 30.524C44.9053 32.272 44.8987 34.0987 44.8187 35.656L44.8107 35.8C44.7667 36.6 44.7253 37.356 44.9747 37.988C45.164 38.468 45.684 38.9293 46.128 38.8213C46.5573 38.7173 46.9893 38.98 47.0947 39.4093C47.1987 39.8387 46.936 40.2707 46.5067 40.376C46.3333 40.4173 46.1627 40.4373 45.9947 40.4373Z" fill="var(--hm-stroke, #000000)"/>
<path d="M26.0587 32.4613C25.976 32.4613 25.892 32.448 25.808 32.4213C25.388 32.2827 25.16 31.8307 25.2987 31.4107C26.248 28.5267 28.5933 26.6573 30.392 25.5973C33.236 23.92 36.1613 23.5453 38.4173 24.5693C38.6133 24.6587 38.764 24.8213 38.8387 25.024C38.9133 25.2267 38.9013 25.448 38.8093 25.6427C38.716 25.84 38.7013 26.076 38.772 26.2427C38.8147 26.3427 38.88 26.4013 38.984 26.436C39.4027 26.576 39.6293 27.0293 39.4893 27.448C39.3493 27.8667 38.896 28.0933 38.4773 27.9533C37.9387 27.7733 37.5213 27.388 37.3 26.868C37.16 26.5373 37.1053 26.1667 37.1373 25.7973C34.7787 25.1107 32.244 26.364 31.2053 26.976C28.996 28.2773 27.4387 30.0307 26.8187 31.912C26.708 32.248 26.3947 32.4613 26.0587 32.4613Z" fill="var(--hm-stroke, #000000)"/>
<path d="M45.2787 52.3187C44.868 52.3187 44.5173 52.0027 44.4827 51.5853C44.3133 49.5773 44.704 48.6573 45.5333 46.9307C45.8373 46.3 46.412 46.1613 46.756 46.0787C46.8307 46.06 46.9013 46.044 46.9627 46.024C47.28 45.924 47.5933 45.8093 47.896 45.6813C48.508 45.428 49.0827 45.1013 49.6107 44.7093C50.6747 43.9053 51.416 42.8227 51.6907 41.6667C51.832 41.084 52.024 39.668 50.7747 39.0373C50.2293 38.7613 49.6947 38.6533 48.2293 39.9413C47.8973 40.2333 47.392 40.2 47.1 39.868C46.808 39.536 46.8413 39.0307 47.1733 38.7387C49.2773 36.8893 50.4947 37.1027 51.4947 37.608C53.0467 38.392 53.7173 40.0893 53.2453 42.0387C52.8853 43.5533 51.9347 44.9573 50.5693 45.988C49.932 46.4613 49.2413 46.8533 48.5133 47.1547C48.168 47.3 47.8067 47.4333 47.4427 47.5467C47.332 47.5813 47.2253 47.608 47.132 47.6307C47.0733 47.6453 46.9973 47.6627 46.948 47.6787C46.1813 49.2787 45.944 49.88 46.0773 51.448C46.1147 51.888 45.788 52.276 45.348 52.312C45.324 52.3173 45.3013 52.3187 45.2787 52.3187Z" fill="var(--hm-stroke, #000000)"/>
<path d="M35.884 53.4987C35.4587 53.4987 35.1053 53.164 35.0853 52.7347C35.0427 51.796 35.0333 51.324 35.06 50.68C33.4573 50.9893 31.8253 50.7053 30.5667 50.4853C28.5333 50.1267 26.9533 49.4027 25.736 48.2707C23.4987 46.1867 22.4547 42.808 22.8707 38.9987C23.0267 37.5867 23.608 35.4853 24.428 33.3773C24.588 32.9653 25.052 32.7613 25.464 32.9213C25.876 33.0813 26.08 33.5453 25.92 33.9573C25.0107 36.296 24.5707 38.1853 24.4613 39.1733C24.1 42.4733 24.9613 45.3627 26.8267 47.0987C27.824 48.0267 29.1 48.6013 30.8427 48.908C32.624 49.2187 34.2133 49.428 35.62 48.8533C35.8747 48.7493 36.1653 48.784 36.3893 48.944C36.6133 49.1053 36.7387 49.3693 36.7213 49.644C36.636 50.9853 36.6213 51.2813 36.6853 52.6573C36.7053 53.0987 36.364 53.4733 35.9227 53.4933C35.9093 53.4987 35.8973 53.4987 35.884 53.4987Z" fill="var(--hm-stroke, #000000)"/>
<path d="M29.124 37.3467C29.6395 37.3467 30.0573 36.8393 30.0573 36.2134C30.0573 35.5874 29.6395 35.08 29.124 35.08C28.6085 35.08 28.1907 35.5874 28.1907 36.2134C28.1907 36.8393 28.6085 37.3467 29.124 37.3467Z" fill="var(--hm-stroke, #000000)"/>
<path d="M33.6573 37.66C34.1728 37.66 34.5907 37.1526 34.5907 36.5267C34.5907 35.9008 34.1728 35.3933 33.6573 35.3933C33.1419 35.3933 32.724 35.9008 32.724 36.5267C32.724 37.1526 33.1419 37.66 33.6573 37.66Z" fill="var(--hm-stroke, #000000)"/>
</g><g data-hm-layer-slot="item" data-hm-part-id="hm1-p-000051" data-hm-selection-slot="item" data-hm-source-group-id="item" data-hm-source-part-id="004" transform="translate(0, 0)">
<path d="M39.291 23.9299C38.951 23.9299 38.641 23.7199 38.531 23.3799C36.921 18.5099 37.7911 12.5299 39.1411 8.5499C39.2811 8.1299 39.731 7.8999 40.151 8.0499C40.571 8.1899 40.791 8.6499 40.651 9.0599C39.061 13.7499 38.821 19.1699 40.041 22.8699C40.181 23.2899 39.951 23.7399 39.531 23.8799C39.451 23.9099 39.361 23.9199 39.281 23.9199L39.291 23.9299Z" fill="var(--hm-stroke, #000000)"/>
<path d="M38.5593 10.481C38.1993 11.861 36.7493 13.101 35.8993 13.151C33.0693 13.301 32.4293 9.97095 34.8193 9.34095C35.4193 9.18095 36.0993 8.99095 36.3293 8.87095C36.3193 8.87095 34.6893 8.40095 33.7093 7.85095C32.8093 7.34095 32.2593 6.35095 32.3593 5.32095C32.4393 4.53095 33.1693 3.45095 34.6093 3.29095C35.7693 3.16095 37.4593 4.42095 37.5793 5.58095C37.6193 5.17095 37.6293 4.22095 37.6393 3.70095C37.6693 2.23095 38.9793 0.370954 40.9493 0.900954C43.5093 1.59095 41.8893 4.92095 41.4693 5.64095C42.9393 5.59095 46.5893 5.17095 46.6993 7.55095C46.7693 9.04095 45.2893 10.231 44.0793 10.071C43.5193 10.001 42.4693 9.51095 41.7293 9.28095C42.8893 9.47095 43.7593 11.391 43.3393 12.481C42.9193 13.571 41.6593 14.081 40.5693 13.661C39.4793 13.241 38.7993 11.671 38.5693 10.501L38.5593 10.481Z" fill="#FA2A0A"/>
<path d="M41.3587 14.5897C40.9887 14.5897 40.6187 14.5197 40.2687 14.3897C39.4387 14.0597 38.8087 13.3097 38.3787 12.4497C37.6787 13.2897 36.7487 13.8997 35.9387 13.9497C33.9087 14.0597 32.7787 12.7597 32.5787 11.5097C32.3987 10.3897 32.9387 9.36965 33.9187 8.83965C33.6887 8.73965 33.4887 8.62965 33.3187 8.53965C32.1187 7.85965 31.4287 6.55965 31.5687 5.22965C31.6987 4.01965 32.7487 2.68965 34.5287 2.48965C35.2587 2.40965 36.1187 2.68965 36.8787 3.23965C37.0287 2.22965 37.5987 1.23965 38.3987 0.639655C39.1987 0.0396546 40.1787 -0.140345 41.1587 0.119655C42.2587 0.409655 42.7387 1.08965 42.9487 1.60965C43.3687 2.62965 43.0887 3.86965 42.7487 4.77965C44.0987 4.73965 45.7087 4.83965 46.6887 5.73965C47.1787 6.18965 47.4587 6.79966 47.4887 7.50965C47.5287 8.42966 47.1387 9.33965 46.4087 9.99965C45.7387 10.6097 44.8887 10.9297 44.0887 10.8697C44.2787 11.5397 44.2787 12.2197 44.0687 12.7697C43.7887 13.4797 43.2487 14.0397 42.5487 14.3597C42.1687 14.5297 41.7587 14.6097 41.3487 14.6097L41.3587 14.5897ZM38.5587 9.67966H38.5787C38.9487 9.68966 39.2687 9.95965 39.3387 10.3197C39.5487 11.3897 40.1387 12.6097 40.8487 12.8897C41.1887 13.0197 41.5787 13.0197 41.9087 12.8697C42.2187 12.7297 42.4587 12.4797 42.5887 12.1697C42.7187 11.8297 42.6087 11.2197 42.3287 10.7197C42.1787 10.4497 41.9787 10.2397 41.7987 10.1297C41.6887 10.0897 41.5887 10.0597 41.4987 10.0297C41.0987 9.89965 40.8587 9.48965 40.9587 9.07965C41.0587 8.66965 41.4487 8.40965 41.8687 8.47965C42.0587 8.50965 42.2587 8.56965 42.4387 8.65965C42.5987 8.71965 42.7687 8.77966 42.9387 8.84966C43.3887 9.01966 43.9387 9.22965 44.1987 9.25965C44.5587 9.30965 45.0087 9.12966 45.3587 8.80966C45.7387 8.46966 45.9387 8.01965 45.9187 7.56965C45.9087 7.27965 45.8187 7.07965 45.6387 6.90965C44.9087 6.24965 42.9887 6.34965 41.9587 6.39965L41.5187 6.41965C41.2387 6.43965 40.9487 6.27965 40.7987 6.02965C40.6487 5.77965 40.6487 5.46965 40.7987 5.21965C41.2387 4.46965 41.8087 2.99965 41.4887 2.20965C41.4187 2.03965 41.2687 1.79965 40.7587 1.65965C40.2487 1.51965 39.7787 1.60965 39.3687 1.90965C38.8487 2.29965 38.4687 3.03965 38.4487 3.70965V4.05965C38.4287 4.59965 38.4187 5.30965 38.3887 5.64965C38.3487 6.05965 38.0087 6.36965 37.5987 6.36965C37.1887 6.36965 36.8387 6.05965 36.7987 5.64965C36.7687 5.35965 36.4887 4.95965 36.0887 4.62965C35.6387 4.25965 35.0687 4.02965 34.7187 4.06965C33.6787 4.18965 33.2187 4.93965 33.1687 5.38965C33.0987 6.08965 33.4687 6.77965 34.1187 7.13965C34.9187 7.58965 36.3087 8.01965 36.5287 8.07965C36.8187 8.14965 37.0487 8.36965 37.1187 8.65965C37.2087 9.01965 37.0387 9.39965 36.6987 9.56965C36.5987 9.61965 36.3387 9.74966 35.0287 10.0997C34.0987 10.3497 34.1287 11.0397 34.1687 11.2497C34.2587 11.8297 34.8187 12.3997 35.8587 12.3397C36.2687 12.3197 37.4887 11.3997 37.7887 10.2697C37.8787 9.91966 38.1987 9.66965 38.5587 9.66965V9.67966Z" fill="var(--hm-stroke, #000000)"/>
<path d="M39.1598 10.1009C38.0898 9.6609 36.8798 9.0809 36.7598 7.8109C36.7298 7.5309 36.7698 7.2609 36.8598 6.9909C37.1898 6.0409 37.7398 5.6609 38.6398 5.3609C39.0998 5.2009 40.9198 4.7609 41.5498 6.7809C41.7798 7.5209 41.8798 8.3809 41.4698 9.0509C40.9098 9.9609 39.6498 10.3009 39.1498 10.1009H39.1598Z" fill="#FFCC00"/>
<path d="M39.4988 10.9489C39.2588 10.9489 39.0388 10.9089 38.8488 10.8289C37.8988 10.4389 36.1288 9.70887 35.9588 7.87887C35.9188 7.49887 35.9688 7.09887 36.0988 6.72887C36.5588 5.37887 37.4688 4.90887 38.3788 4.59887C38.6988 4.48887 39.8288 4.16887 40.8688 4.69887C41.5588 5.04887 42.0388 5.66887 42.3088 6.53887C42.6688 7.70887 42.6188 8.69887 42.1488 9.45887C41.5588 10.4089 40.3988 10.9389 39.4988 10.9389V10.9489ZM39.4488 9.35887C39.6588 9.39887 40.4488 9.20887 40.7888 8.63887C41.0588 8.19887 40.9388 7.51887 40.7888 7.02887C40.6488 6.57887 40.4388 6.28887 40.1488 6.13887C39.6488 5.87887 38.9688 6.09887 38.8988 6.11887C38.1188 6.38887 37.8288 6.63887 37.6188 7.25887C37.5688 7.41887 37.5388 7.58887 37.5588 7.73887C37.6288 8.45887 38.3088 8.87887 39.4488 9.35887Z" fill="var(--hm-stroke, #000000)"/>
<path d="M38.9414 21.9286C39.4614 18.4086 44.2314 15.6986 47.4814 17.0486C46.0514 20.5086 43.1714 21.6986 38.9414 21.9286Z" fill="#27B500"/>
<path d="M38.9413 22.7305C38.7213 22.7305 38.5013 22.6405 38.3513 22.4705C38.1913 22.2905 38.1213 22.0505 38.1513 21.8105C38.4313 19.9105 39.8113 18.0905 41.8213 16.9505C43.8113 15.8205 46.0413 15.5905 47.7813 16.3105C48.1913 16.4805 48.3813 16.9505 48.2113 17.3505C46.3913 21.7705 42.3213 22.5405 38.9813 22.7205C38.9713 22.7205 38.9513 22.7205 38.9413 22.7205V22.7305ZM45.6113 17.5005C44.6513 17.5005 43.6013 17.7905 42.6113 18.3505C41.4013 19.0305 40.4913 20.0005 40.0313 21.0505C43.2813 20.7005 45.2113 19.6405 46.3513 17.5605C46.1113 17.5205 45.8613 17.5005 45.6113 17.5005Z" fill="var(--hm-stroke, #000000)"/>
<path d="M38.6501 21.0205C35.8301 14.9105 30.8101 16.5305 30.8101 16.5305C30.8101 16.5305 30.3201 20.9805 38.6501 21.0205Z" fill="#27B500"/>
<path d="M38.6516 21.8197C35.0616 21.7997 32.5216 20.9997 31.1116 19.4197C29.8516 18.0097 30.0016 16.5097 30.0016 16.4397C30.0316 16.1297 30.2516 15.8597 30.5516 15.7697C30.6116 15.7497 36.2816 14.0097 39.3616 20.6797C39.4716 20.9297 39.4516 21.2197 39.3116 21.4497C39.1616 21.6797 38.9116 21.8197 38.6416 21.8197H38.6516ZM31.6616 17.1697C31.7416 17.4997 31.9216 17.9497 32.3316 18.3897C32.9916 19.1097 34.3816 19.9597 37.2816 20.1697C35.3516 17.0897 32.8116 17.0097 31.6616 17.1697Z" fill="var(--hm-stroke, #000000)"/>
</g><g data-hm-layer-slot="glasses" data-hm-part-id="hm1-p-000056" data-hm-selection-slot="glasses" data-hm-source-group-id="glasses" data-hm-source-part-id="000" transform="translate(0, 0)"></g></svg>