<svg xmlns="http://www.w3.org/2000/svg" width="88" height="88" viewBox="-4 -4.5 88 88" style="--hm-bottom:#C9C2B8;--hm-clothes:#1E3A5F;--hm-hair:#1D1D1D;--hm-skin:#FBE3D3;--hm-stroke:#201E1D"><g data-hm-layer-slot="bottom" data-hm-part-id="hm1-p-000038" data-hm-selection-slot="bottom" data-hm-source-group-id="bottom" data-hm-source-part-id="006" transform="translate(0, 85)">
<path d="M51.188 90.4502C50.3787 92.2899 48.8813 93.737 47.016 94.4819C45.152 95.2269 43.0707 95.2108 41.2187 94.4352L41.108 94.3898C40.3187 96.6593 39.1427 98.802 38.6453 101.152C38.568 101.511 38.512 101.905 38.684 102.23C38.9307 102.696 39.5253 102.827 40.0467 102.898C41.8533 103.165 43.7293 103.385 45.4787 102.862C48.4 101.994 50.4 99.1558 51.1627 96.1987C51.7213 94.0414 51.7467 91.8026 51.6533 89.5651L51.188 90.4502Z" fill="#000000"/>
<path d="M36.6134 89.6839C35.472 90.8214 34.0814 91.6771 32.5534 92.1844C31.0254 92.6917 29.4 92.8372 27.8054 92.6076C27.3067 92.5529 26.824 92.3993 26.3867 92.1537C25.9614 91.8867 25.6174 91.4582 25.5667 90.9602V90.4743C23.7694 91.9962 21.9587 93.4887 21.348 95.6941C21.2267 96.1347 21.164 96.6206 21.356 97.0291C21.72 97.8101 22.752 97.9436 23.612 97.9636C25.8707 98.0344 28.1614 98.0971 30.3574 97.5711C32.5534 97.0451 34.684 95.8276 35.824 93.8745C36.7307 92.3246 36.936 90.4743 37.1067 88.6867L36.6134 89.6839Z" fill="#000000"/>
<path d="M41.136 57.9911C41.6747 67.4535 41.9933 76.9254 42.0933 86.4065C42.116 88.5679 42.124 90.7546 41.6133 92.8546C41.4987 93.3272 41.3587 93.7891 41.2027 94.2523L41.268 94.4272C43.12 95.2015 45.2013 95.2189 47.0653 94.4739C48.9293 93.729 50.4267 92.2819 51.2373 90.4422L51.6133 89.7227C51.5787 88.8496 51.6133 87.9391 51.5693 87.0714C51.0227 77.2738 51.2333 67.4469 51.4627 57.6413" fill="var(--hm-skin, #FFFFFF)"/>
<path d="M29.0853 57.1113L30.0187 80.5472C30.092 82.4162 30.152 84.368 29.4133 86.0901C28.6493 87.8697 27.1387 89.178 25.6187 90.4649V90.9522C25.6693 91.4501 26.0187 91.8867 26.44 92.1457C26.8773 92.3913 27.3587 92.5448 27.8573 92.5996C29.452 92.8279 31.0773 92.6837 32.6053 92.1764C34.1333 91.6691 35.524 90.8133 36.6667 89.6759C36.808 89.5584 36.9333 89.4236 37.0427 89.2754C37.1187 89.0912 37.1587 88.8936 37.16 88.6934C38.1387 78.4366 38.6067 68.1344 38.5613 57.8255" fill="var(--hm-skin, #FFFFFF)"/>
<path d="M53.4853 6.82452C56.7906 23.0247 59.2186 39.3919 60.7586 55.8551C56.0626 56.851 51.3333 57.8509 46.5333 58.0244C42.968 58.1579 39.404 57.8229 35.8506 57.4904L19.9266 56.0126C19.9266 56.0126 21.2706 22.8832 26.5333 7.64288" fill="var(--hm-bottom, #000000)"/>
<path fill-rule="evenodd" clip-rule="evenodd" d="M39.3611 58.6056C39.6984 58.6322 40.0364 58.6574 40.3748 58.6809C40.8879 67.8792 41.1982 77.2068 41.2946 86.4159L41.2948 86.4309C41.3147 88.391 41.3373 90.6103 40.8373 92.6663C40.5218 93.963 40.0086 95.1911 39.4655 96.491L39.4491 96.5303C38.8565 97.9483 38.244 99.4141 37.912 100.977C37.8426 101.304 37.6988 101.982 38.0266 102.596C38.4922 103.478 39.5362 103.621 39.9767 103.681L39.98 103.681C41.0093 103.834 42.0733 103.97 43.136 103.97C44.0173 103.97 44.8986 103.875 45.76 103.62C49.2386 102.579 51.2586 99.2012 51.988 96.387C52.7453 93.4633 52.5693 90.4329 52.3986 87.5012L52.3706 87.0206C51.8261 77.243 52.0427 67.2003 52.2507 58.2809C55.1877 57.8526 58.086 57.2381 60.9253 56.636C61.3227 56.5519 61.5933 56.1821 61.556 55.7776C60.0187 39.3518 57.568 22.8258 54.2693 6.66163C54.1813 6.22775 53.7587 5.94874 53.3253 6.03685C52.892 6.12496 52.6133 6.54815 52.7013 6.98203C55.94 22.8578 58.36 39.0821 59.8947 55.2169C55.52 56.1434 51.012 57.0592 46.5027 57.2221C43.0027 57.3543 39.4227 57.0192 35.9613 56.6948L20.76 55.2837C20.868 53.0115 21.244 45.9066 22.0533 37.6109C23.348 24.3477 25.1587 14.0749 27.2893 7.90318C27.4333 7.48532 27.212 7.02875 26.7947 6.88457C26.3773 6.74039 25.9213 6.962 25.7773 7.37986C20.5373 22.5575 19.1827 54.6215 19.128 55.9792C19.1107 56.4051 19.4293 56.7709 19.8533 56.8096L28.3033 57.5938L29.2191 80.591C29.2843 82.2766 29.3582 84.1852 28.6773 85.7724C27.9673 87.4263 26.516 88.6551 24.9802 89.9553L24.976 89.959L24.973 89.9615C23.1632 91.4946 21.2916 93.0802 20.6293 95.4725C20.4226 96.2228 20.44 96.8409 20.684 97.3602C21.3017 98.6853 22.9938 98.7418 23.6359 98.7632L23.6386 98.7633L23.7392 98.7663L23.7406 98.7663C24.4699 98.7881 25.2065 98.81 25.948 98.81C27.492 98.81 29.0533 98.7166 30.5986 98.3388C33.296 97.6833 35.416 96.2375 36.5666 94.2683C37.52 92.6343 37.7586 90.8027 37.9533 88.7521C38.9053 78.7732 39.379 68.6347 39.3611 58.6056ZM44.892 58.8548C43.9217 58.8548 42.951 58.8259 41.9827 58.7776C42.492 67.9392 42.7989 77.228 42.8946 86.3998C42.916 88.4571 42.94 90.7893 42.392 93.0455C42.322 93.3335 42.2431 93.6186 42.1572 93.9008C43.6658 94.3802 45.2818 94.3236 46.7693 93.729C48.4493 93.0575 49.776 91.7759 50.5053 90.1192C50.5888 89.9302 50.7362 89.7896 50.9109 89.7115C50.8831 89.0066 50.8423 88.3027 50.8019 87.6048L50.7733 87.1114C50.2299 77.3625 50.4387 67.3809 50.6449 58.4949C49.2909 58.6574 47.9295 58.7731 46.5627 58.8228C46.0067 58.8454 45.4493 58.8548 44.892 58.8548ZM40.932 97.1333C41.1682 96.5693 41.4076 95.9971 41.6314 95.4143C42.4764 95.6879 43.3495 95.825 44.2226 95.825C45.2853 95.825 46.348 95.6234 47.3626 95.2175C48.7868 94.6483 50.0053 93.7222 50.9202 92.5349C50.868 93.708 50.7286 94.8654 50.4386 95.9838C49.4933 99.6324 47.1653 101.527 45.3013 102.085C43.7226 102.556 41.9946 102.36 40.2053 102.095C39.5906 102.013 39.4666 101.895 39.44 101.844C39.416 101.798 39.4013 101.668 39.4773 101.31C39.7786 99.89 40.3386 98.551 40.932 97.1333ZM35.8162 58.2917L35.815 58.2916L35.8133 58.2914L35.776 58.2874L29.9104 57.743L30.8173 80.5152C30.8906 82.3748 30.9733 84.4815 30.148 86.4065C29.3585 88.2436 27.8892 89.5835 26.4064 90.8463C26.4075 90.8544 26.4084 90.8626 26.4093 90.8708C26.4306 91.0737 26.5986 91.302 26.84 91.4555C27.1813 91.6437 27.5506 91.7612 27.9386 91.8039C27.948 91.8053 27.9573 91.8066 27.9653 91.808C29.4293 92.0189 30.9466 91.884 32.3506 91.4181C33.7546 90.9522 35.052 90.1539 36.1 89.1099C36.168 89.0421 36.2451 88.9891 36.3274 88.9508C36.3389 88.8351 36.3502 88.7186 36.3613 88.6013C37.3125 78.627 37.7836 68.4942 37.7608 58.4705C37.1092 58.4125 36.4607 58.3519 35.8162 58.2917ZM35.9829 91.3157C35.8104 92.0931 35.5647 92.8113 35.1853 93.4607C34.2693 95.028 32.46 96.2388 30.22 96.7835C28.108 97.2971 25.8629 97.2281 23.6922 97.1614L23.688 97.1613C22.7786 97.1319 22.2693 96.9757 22.132 96.6807C22.0813 96.5726 22.0466 96.3483 22.1706 95.8997C22.6079 94.32 23.7758 93.1192 25.1252 91.9396C25.3349 92.2896 25.64 92.5985 26.016 92.8292L26.044 92.8452C26.5746 93.143 27.1493 93.3272 27.752 93.3953C28.272 93.4687 28.7986 93.5061 29.324 93.5061C30.5213 93.5061 31.72 93.3138 32.8546 92.94C33.9727 92.569 35.033 92.0168 35.9829 91.3157Z" fill="var(--hm-stroke, #000000)"/>
</g><g data-hm-layer-slot="body" data-hm-part-id="hm1-p-000030" data-hm-selection-slot="body" data-hm-source-group-id="body" data-hm-source-part-id="006" transform="translate(0, 51)">
<path d="M45.2493 0C45.3693 1.34667 45.92 4.38933 47.9693 3.93333L48.1893 4.26667C48.0893 6.356 47.0306 7.82933 45.372 9.356C43.6866 10.8827 41.5373 11.8 39.2693 11.9613C37.2693 12.108 35.1426 11.6293 33.6466 10.288C32.1506 8.94667 31.364 7.088 32.3546 5.49467H32.4986C32.9493 5.508 33.364 5.272 33.7453 5.032C34.2306 4.72533 35.232 3.468 35.532 3.10667C35.932 2.588 36.0946 0.621333 36.3 0H45.2493V0Z" fill="var(--hm-skin, #FFFFFF)"/>
<path d="M48.208 3.2C50.5667 3.832 52.396 5.64933 53.8693 7.51067C55.476 9.54267 56.736 11.8253 57.6 14.2667C58.084 15.6307 58.8493 17.1653 59.1653 18.576L59.5867 19.8667C61.8693 29.6973 62.2773 39.8373 62.4267 49.9467L62.56 50.0987C63.3813 53.104 66.448 60.704 67.1147 63.904C67.136 64.1773 67.0907 64.452 66.9813 64.704C65.648 66.304 63.3813 65.904 61.628 66.448L55.432 67.6813C46.564 69.272 37.664 69.6613 28.78 68.1627L27.104 67.9667L21.3707 66.8693C20.8533 66.7707 20.2853 66.6387 19.9827 66.2027C19.732 65.8453 19.7333 65.3747 19.752 64.9387C19.828 63.2053 20.028 61.4853 20.228 59.764L21.1427 51.8787H21.0733C19.7187 51.7133 18.6307 51.5493 17.276 51.3853C17.8373 45.192 18.5573 39.0147 19.436 32.852C20.2 27.4853 21.0893 22.1173 22.668 16.932C24.0707 12.324 26.296 7.55867 30.5213 5.248L36.388 5.648L48.208 3.2Z" fill="var(--hm-clothes, #FFFFFF)"/>
<path d="M52.792 57.9907C51.508 58.4053 49.8453 59.876 50.9253 61.3C51.524 62.0853 52.4253 62.508 53.2533 63C53.892 63.38 54.06 64.6587 54.308 65.3373C54.9306 67.048 56.144 68.4467 58.128 68.3187C60.1493 68.1853 61.4066 66.464 61.7906 64.6067C62.208 62.5933 61.6573 59.98 61.3226 57.9907H52.792Z" fill="var(--hm-skin, #FFFFFF)"/>
<path d="M19.748 65.2986C18.4053 65.2466 17.112 64.4346 16.5787 63.2346C16.712 61.1013 17.112 58.568 15.3787 56.8346C15.112 55.768 15.912 54.968 16.8453 54.62L20.8453 54.4106L19.748 65.2986Z" fill="var(--hm-skin, #FFFFFF)"/>
<path d="M36.4 5.65601L37.6774 11.2C39.708 10.4867 41.744 9.77201 43.6774 8.82668C44.3734 8.48668 45.072 8.10268 45.576 7.51468C46.172 6.82001 46.4387 5.91468 46.6907 5.03068C47.0694 3.69735 47.4507 2.36401 47.576 0.981348C45.9254 1.10801 44.4 1.86668 42.9227 2.61201C40.9614 3.60001 39 4.59068 36.4 5.65601Z" fill="var(--hm-clothes, #FFFFFF)"/>
<path d="M35 3L34.4733 3.96535C34.4013 4.16802 34.3733 4.38402 34.388 4.59868C34.4787 5.22002 35.2187 5.47602 35.832 5.60535C35.1427 7.26002 34.1467 8.77068 32.8987 10.0574C32.208 9.31602 31.6827 8.43735 31.3573 7.47735C31.032 6.51735 30.916 5.50002 31.0147 4.49202L35 2.5C35.248 2.90667 35.1467 3.12267 35 3Z" fill="var(--hm-clothes, #FFFFFF)"/>
<path d="M51.5413 54.4987C51.3306 55.5187 51.2613 56.5613 51.3333 57.6C51.3306 57.66 51.3386 57.72 51.36 57.776C51.3813 57.832 51.4133 57.884 51.4546 57.928C51.5386 57.9787 51.6373 58.0013 51.7346 57.9907L60.8013 57.9653C60.9386 57.976 61.076 57.9507 61.2013 57.8933C61.4573 57.748 61.4773 57.3933 61.468 57.0933L61.372 54.636L51.5413 54.4987Z" fill="var(--hm-clothes, #FFFFFF)"/>
<path d="M17.6866 51.66C17.2586 52.56 17.172 53.58 17.092 54.5733C18.2266 54.9187 19.4053 55.0987 20.5906 55.1067L21.012 51.9707L17.6866 51.66Z" fill="var(--hm-clothes, #FFFFFF)"/>
<path d="M59.164 19.376C58.7974 19.376 58.468 19.1227 58.384 18.7507C58.192 17.8947 57.8067 16.9507 57.4334 16.0373C57.2294 15.54 57.02 15.0253 56.8454 14.5347C56.008 12.1693 54.796 9.97332 53.2414 8.00665C52.1067 6.57332 50.3294 4.59732 48 3.97199C47.5734 3.85732 47.32 3.41865 47.4347 2.99199C47.5494 2.56532 47.988 2.31199 48.4147 2.42665C51.2027 3.17332 53.2214 5.40265 54.496 7.01332C56.16 9.11865 57.4587 11.468 58.3534 13.9987C58.5147 14.4533 58.7094 14.928 58.9147 15.4307C59.3134 16.4053 59.724 17.4133 59.9454 18.4C60.0414 18.8307 59.7707 19.2587 59.34 19.356C59.2814 19.3693 59.2227 19.376 59.164 19.376Z" fill="var(--hm-stroke, #000000)"/>
<path d="M25.9014 68.5427C25.852 68.5427 25.8014 68.5373 25.7507 68.528L21.224 67.6613C20.6987 67.556 19.8334 67.3813 19.332 66.6693C18.94 66.1107 18.932 65.468 18.956 64.9107C19.0334 63.148 19.2387 61.384 19.436 59.6787L21.052 45.744C22.1507 36.34 23.2854 26.6147 25.496 17.232C25.5974 16.8027 26.028 16.5347 26.4587 16.6373C26.888 16.7387 27.1547 17.1693 27.0534 17.6C24.864 26.8933 23.7347 36.572 22.6414 45.932L21.0254 59.8653C20.8307 61.544 20.6294 63.2787 20.5534 64.9827C20.544 65.1947 20.5267 65.592 20.64 65.752C20.7734 65.9413 21.248 66.0373 21.5307 66.0933L26.0507 66.9587C26.484 67.0413 26.7694 67.4613 26.6854 67.8947C26.612 68.276 26.2774 68.5427 25.9014 68.5427Z" fill="var(--hm-stroke, #000000)"/>
<path d="M40.2627 69.9053C36.2773 69.9053 32.4213 69.5867 28.6453 68.9493C28.2093 68.876 27.916 68.4627 27.9893 68.028C28.0627 67.592 28.4747 67.2973 28.9107 67.372C37.1307 68.7587 45.7587 68.6013 55.288 66.892C55.7227 66.8133 56.1387 67.1027 56.216 67.5387C56.2947 67.9733 56.0053 68.3893 55.5693 68.4667C50.2213 69.4253 45.1453 69.9053 40.2627 69.9053Z" fill="var(--hm-stroke, #000000)"/>
<path d="M61.6253 67.2453C61.284 67.2453 60.968 67.0253 60.8613 66.6827C60.7307 66.26 60.9667 65.812 61.388 65.6813C62.0213 65.4853 62.6893 65.4013 63.3347 65.3213C64.5347 65.172 65.5787 65.0414 66.28 64.2854C66.3067 64.196 66.3187 64.1013 66.316 64.008C65.928 62.1973 64.74 58.876 63.6907 55.9413C62.8933 53.7107 62.1387 51.604 61.7853 50.308C61.6693 49.8813 61.92 49.4413 62.3467 49.3253C62.772 49.2093 63.2133 49.46 63.3293 49.8867C63.668 51.124 64.4107 53.2027 65.1987 55.4027C66.3293 58.564 67.4987 61.8333 67.896 63.74C67.9027 63.7733 67.908 63.8067 67.9107 63.8414C67.9413 64.2427 67.8733 64.6507 67.7147 65.02C67.684 65.0907 67.644 65.156 67.5947 65.2147C66.4893 66.5413 64.92 66.7374 63.5347 66.9094C62.932 66.984 62.3613 67.056 61.864 67.2107C61.784 67.2333 61.704 67.2453 61.6253 67.2453Z" fill="var(--hm-stroke, #000000)"/>
<path d="M57.8814 69.3414C55.944 69.3414 54.3787 68.0747 53.5587 65.8227C53.4854 65.62 53.4227 65.3933 53.3574 65.1533C53.264 64.8133 53.0467 64.0174 52.848 63.9C52.7067 63.816 52.5654 63.7347 52.4227 63.6533C51.7014 63.2413 50.884 62.7733 50.292 61.9947C49.652 61.1547 49.6987 60.3973 49.8507 59.9107C50.1934 58.8173 51.3827 58.0827 52.3827 57.76C52.8027 57.6254 53.2547 57.8547 53.3894 58.276C53.524 58.6973 53.2947 59.148 52.8734 59.2827C52.132 59.5227 51.5027 59.988 51.3774 60.3894C51.3534 60.4654 51.2907 60.6667 51.564 61.0253C51.96 61.5453 52.5707 61.8947 53.216 62.264C53.3667 62.3507 53.5174 62.436 53.6654 62.524C54.4187 62.9707 54.6854 63.9467 54.9 64.7294C54.956 64.936 55.0107 65.132 55.0614 65.2733C55.4934 66.4587 56.3654 67.844 58.08 67.7333C59.2067 67.6587 60.5667 66.812 61.0134 64.6587C61.356 63.0013 61.0454 61.2173 60.7454 59.4907C60.7094 59.2827 60.6734 59.076 60.6387 58.8693C60.5654 58.4333 60.8587 58.0213 61.2947 57.948C61.7307 57.8733 62.1427 58.168 62.216 58.604C62.2507 58.808 62.2854 59.012 62.3214 59.2174C62.6467 61.0907 62.984 63.028 62.58 64.984C62.0627 67.4827 60.3387 69.1893 58.1867 69.3307C58.084 69.3387 57.9814 69.3414 57.8814 69.3414Z" fill="var(--hm-stroke, #000000)"/>
<path d="M19.656 66.0866C19.6467 66.0866 19.6374 66.0866 19.6294 66.0866C18.8267 66.06 18.0494 65.8106 17.3814 65.364C16.7134 64.9186 16.184 64.2973 15.852 63.5666C15.7974 63.4466 15.7734 63.316 15.7814 63.1853C15.7947 62.964 15.812 62.7373 15.8294 62.508C15.968 60.6346 16.1107 58.6973 14.8147 57.4C14.712 57.2973 14.64 57.1693 14.604 57.028C14.272 55.7 15.0614 54.4306 16.568 53.8693C16.9814 53.7146 17.4427 53.9253 17.5974 54.34C17.752 54.7533 17.5414 55.2146 17.1267 55.3693C16.9454 55.4373 16.104 55.788 16.1307 56.4626C17.748 58.26 17.5694 60.6733 17.4254 62.6253C17.4147 62.776 17.4027 62.924 17.3934 63.072C17.6027 63.4586 17.904 63.788 18.2707 64.0333C18.6907 64.3133 19.1787 64.4706 19.684 64.4866C20.1254 64.5013 20.472 64.8706 20.4574 65.3133C20.4414 65.7453 20.0854 66.0866 19.656 66.0866Z" fill="var(--hm-stroke, #000000)"/>
<path d="M37.6827 11.996C37.5494 11.996 37.4147 11.9626 37.2974 11.8986C37.0974 11.7893 36.9494 11.6013 36.8974 11.38L35.62 5.83598C35.532 5.45464 35.7334 5.06531 36.096 4.91598C38.6387 3.87464 40.6 2.88531 42.4974 1.93064L42.5614 1.89864C44.0227 1.16131 45.6787 0.32531 47.5134 0.18531C47.748 0.166643 47.9787 0.25331 48.144 0.42131C48.3094 0.58931 48.392 0.82131 48.3707 1.05464C48.24 2.49731 47.848 3.87731 47.4694 5.21064L47.4574 5.25064C47.2107 6.11731 46.904 7.19464 46.18 8.03731C45.5867 8.72931 44.7947 9.17198 44.0254 9.54664C42.0534 10.5106 39.968 11.244 37.9507 11.952C37.8667 11.9813 37.7747 11.996 37.6827 11.996ZM37.332 6.13464L38.256 10.148C39.9707 9.54131 41.7054 8.89998 43.3254 8.10798C43.8974 7.82798 44.544 7.48798 44.968 6.99464C45.4627 6.41731 45.696 5.60131 45.92 4.81198L45.9307 4.77198C46.2054 3.80398 46.4694 2.87598 46.636 1.93998C45.48 2.21731 44.3654 2.77864 43.28 3.32664L43.2147 3.35998C41.452 4.24931 39.6294 5.16664 37.332 6.13464Z" fill="var(--hm-stroke, #000000)"/>
<path d="M32.8987 10.8573C32.896 10.8573 32.8933 10.8573 32.8907 10.8573C32.672 10.8547 32.4627 10.7627 32.3133 10.6027C31.54 9.77332 30.964 8.80798 30.6 7.73332C30.236 6.65865 30.108 5.54265 30.2187 4.41332C30.244 4.14798 30.4013 3.91332 30.6347 3.78665L34.9373 1.46665C35.2413 1.30265 35.616 1.35198 35.8667 1.58932C36.1173 1.82665 36.188 2.19865 36.0413 2.51065L35.2173 4.26398C35.1947 4.33732 35.184 4.41332 35.184 4.49065C35.2093 4.52665 35.364 4.68932 35.9973 4.82265C36.2307 4.87198 36.4293 5.02265 36.54 5.23332C36.6507 5.44398 36.6627 5.69332 36.5707 5.91332C35.84 7.66798 34.7973 9.24932 33.4733 10.6147C33.3227 10.7693 33.1147 10.8573 32.8987 10.8573ZM31.784 4.98665C31.7587 5.74665 31.8707 6.49598 32.116 7.22132C32.312 7.79998 32.5853 8.33865 32.932 8.83198C33.644 7.99332 34.2467 7.07598 34.7333 6.09065C34.0667 5.78132 33.6853 5.31998 33.596 4.71465C33.5933 4.69465 33.5907 4.67598 33.5893 4.65598C33.5733 4.42932 33.5893 4.20532 33.636 3.98532L31.784 4.98665Z" fill="var(--hm-stroke, #000000)"/>
<path d="M21.0733 52.68C21.0413 52.68 21.008 52.6787 20.976 52.6747C20.3067 52.5933 19.6933 52.5107 19.1013 52.4307C18.4933 52.3493 17.864 52.264 17.18 52.1813C16.7507 52.1293 16.44 51.7453 16.48 51.3147C17.04 45.132 17.768 38.8827 18.6453 32.74C19.3867 27.5333 20.2947 21.9867 21.904 16.7C23.8173 10.4387 26.4347 6.57867 30.1427 4.55067C30.5307 4.33867 31.016 4.48134 31.228 4.86934C31.44 5.25734 31.2973 5.74267 30.9093 5.95467C27.592 7.76934 25.216 11.332 23.4333 17.1667C21.856 22.3493 20.96 27.8227 20.228 32.9653C19.3907 38.8267 18.6907 44.7853 18.1427 50.688C18.548 50.74 18.9347 50.792 19.3147 50.844C19.9027 50.9227 20.5093 51.0053 21.1693 51.0853C21.608 51.1387 21.92 51.5373 21.8667 51.976C21.816 52.3827 21.472 52.68 21.0733 52.68Z" fill="var(--hm-stroke, #000000)"/>
<path d="M34.1134 69.668C33.7134 69.668 33.368 69.3693 33.32 68.9627C31.8867 56.9187 32.6654 44.6667 33.4174 32.8173L35.0974 6.34932C35.1254 5.90799 35.5067 5.57732 35.9467 5.60132C36.388 5.62932 36.7227 6.00933 36.6947 6.45066L35.0147 32.9187C34.2667 44.696 33.4934 56.8747 34.9094 68.7733C34.9614 69.212 34.648 69.6106 34.2094 69.6626C34.1774 69.6666 34.1454 69.668 34.1134 69.668Z" fill="var(--hm-stroke, #000000)"/>
<path d="M62.4827 55.376C62.4787 55.376 62.4734 55.376 62.4694 55.376L50.8614 55.1853C50.4654 55.1786 50.1334 54.8826 50.0814 54.4893C48.5014 42.4586 47.9494 30.2106 48.4414 18.0866C48.4587 17.6453 48.8307 17.304 49.2734 17.32C49.7147 17.3373 50.0587 17.7106 50.04 18.152C49.5614 29.956 50.0787 41.8773 51.5787 53.5973L61.6734 53.7626C61.668 53.2773 61.664 52.7933 61.6587 52.3106C61.5547 41.604 61.456 31.492 59.0187 20.984C58.9187 20.5533 59.1867 20.124 59.6174 20.024C60.048 19.924 60.4774 20.192 60.5774 20.6226C63.0547 31.3013 63.1534 41.4986 63.2587 52.296C63.2654 53.0506 63.2734 53.8066 63.2814 54.568C63.284 54.784 63.1987 54.992 63.0454 55.144C62.8974 55.292 62.6934 55.376 62.4827 55.376Z" fill="var(--hm-stroke, #000000)"/>
<path d="M51.6893 58.7933C51.4613 58.7933 51.2347 58.7306 51.0387 58.612C50.9787 58.576 50.924 58.532 50.876 58.4813C50.7587 58.3586 50.6693 58.2146 50.6093 58.0546C50.5573 57.9146 50.532 57.768 50.532 57.6186C50.4587 56.52 50.5347 55.416 50.7573 54.3386C50.8467 53.9053 51.2693 53.6266 51.7027 53.7173C52.136 53.8066 52.4133 54.2293 52.324 54.6626C52.152 55.4946 52.0813 56.344 52.112 57.192L60.6693 57.168C60.6693 57.1533 60.6693 57.1373 60.668 57.12L60.572 54.6666C60.5547 54.2253 60.8987 53.8533 61.34 53.836C61.784 53.816 62.1533 54.1626 62.1707 54.604L62.2667 57.0613C62.276 57.344 62.3013 58.188 61.596 58.588C61.576 58.5986 61.556 58.6093 61.5347 58.6186C61.2987 58.728 61.0373 58.7773 60.7773 58.764L51.7667 58.7893C51.7413 58.792 51.7147 58.7933 51.6893 58.7933Z" fill="var(--hm-stroke, #000000)"/>
<path d="M20.5907 55.9067H20.5854C19.3214 55.8987 18.068 55.7067 16.8587 55.3387C16.4987 55.2293 16.264 54.884 16.2947 54.5093C16.376 53.5027 16.468 52.3613 16.964 51.316C17.1534 50.9173 17.6307 50.748 18.0307 50.9373C18.4294 51.1267 18.5987 51.604 18.4094 52.004C18.128 52.596 18.016 53.2827 17.9467 53.9787C18.8134 54.1907 19.7027 54.3013 20.596 54.3067C21.0374 54.3093 21.3934 54.6707 21.3907 55.112C21.388 55.552 21.0294 55.9067 20.5907 55.9067Z" fill="var(--hm-stroke, #000000)"/>
</g><g data-hm-layer-slot="head" data-hm-part-id="hm1-p-000013" data-hm-selection-slot="head" data-hm-source-group-id="head" data-hm-source-part-id="013" transform="translate(0, -0.5)">
<path d="M34.908 51.4666C28.7093 51.8986 22.4987 50.8307 16.8 48.352C16.9107 43.86 17.4867 39.392 18.52 35.0187C19.0787 32.6507 19.78 30.2893 20.976 28.128C22.0427 26.2093 23.4693 24.484 24.956 22.8187C26.4427 21.1533 28.0067 19.5227 29.916 18.272C35.1387 14.8507 42.5973 14.8373 48.1387 17.812L50.7533 18.7693C53.6747 19.448 55.1707 22.3693 55.9933 25.02C58.56 33.2773 58.4373 42.004 58.296 50.5853C54.584 51.5707 50.7307 51.9106 46.9027 51.5906L34.908 51.4666Z" fill="var(--hm-hair, #000000)"/>
<path d="M35.8853 53.4C35.8213 52.0107 35.8347 51.2867 35.9227 49.8987C34.2587 50.5787 32.4187 50.2987 30.704 50C29.06 49.7107 27.5227 49.1427 26.2813 47.988C23.952 45.8187 23.3333 42.4347 23.6667 39.3893C23.8 38.18 24.3147 36.1827 25.1747 33.9707L26.7853 31.616C34.0173 34.7227 40.0773 35.8227 40.2227 35.0693C40.2667 35.2267 45.1373 28.568 45.212 28.4347C45.2213 28.4213 45.252 28.424 45.248 28.4347C43.0893 37.796 45.5973 38.6893 46.4267 39.448L47.7013 39.6333C49.2307 38.2893 50.1307 38.1093 51.1347 38.616C52.564 39.3373 52.7787 40.8627 52.468 42.144C52.132 43.5573 51.236 44.776 50.0867 45.644C49.5067 46.0747 48.8747 46.4333 48.2067 46.7107C47.8787 46.8493 47.544 46.972 47.204 47.0787C46.8213 47.2 46.4347 47.196 46.2547 47.5693C45.4627 49.22 45.1253 50.3867 45.28 52.2107" fill="var(--hm-skin, #FFFFFF)"/>
<path d="M46.4266 39.9467C46.2333 39.9467 46.04 39.8773 45.8866 39.7373C45.8346 39.6893 45.76 39.632 45.6746 39.564C45.1386 39.1413 44.24 38.4347 43.824 36.6213C43.5173 35.288 43.5133 33.5667 43.8146 31.4053C43.612 31.68 43.456 31.8907 43.3866 31.984C42.6973 32.9147 42.1106 33.696 41.6893 34.2453C41.4386 34.572 41.24 34.8253 41.0973 35C41.0186 35.0973 40.9413 35.192 40.8586 35.276C40.7666 35.4093 40.64 35.52 40.484 35.6027C39.812 35.9587 38.12 35.8027 35.452 35.1387C32.7146 34.4587 29.5253 33.36 26.4693 32.048C26.064 31.8733 25.876 31.4027 26.0506 30.9973C26.2253 30.592 26.696 30.404 27.1013 30.5787C33.5186 33.336 38.5986 34.3187 39.6666 34.192C39.692 34.168 39.7173 34.1453 39.7453 34.1253C40.3453 33.444 44.1786 28.2347 44.5346 27.7067C44.5413 27.696 44.5493 27.684 44.5573 27.6733C44.796 27.3347 45.252 27.2253 45.6186 27.42C45.9426 27.592 46.108 27.964 46.0266 28.3133C44.1746 36.3467 45.856 37.6707 46.664 38.3067C46.7706 38.3907 46.8706 38.4693 46.9666 38.5573C47.292 38.856 47.3146 39.3613 47.0173 39.688C46.8586 39.8587 46.6426 39.9467 46.4266 39.9467ZM45.8653 28.592C45.86 28.6013 45.8533 28.6107 45.8453 28.62C45.8533 28.612 45.86 28.6027 45.8653 28.592ZM44.5333 27.7107C44.524 27.7253 44.5173 27.7373 44.5146 27.7427C44.52 27.732 44.5266 27.7213 44.5333 27.7107Z" fill="var(--hm-stroke, #000000)"/>
<path d="M49.708 52.5053C48.752 52.5053 47.796 52.4653 46.8373 52.3853C46.3973 52.348 46.0693 51.9613 46.1066 51.5213C46.144 51.0813 46.5306 50.7533 46.9706 50.7907C50.516 51.0867 54.0573 50.8067 57.508 49.9587C57.6413 41.7347 57.7186 33.256 55.2306 25.2547C54.204 21.9453 52.6373 20.0253 50.5733 19.5453C50.1426 19.4453 49.8746 19.016 49.9746 18.5853C50.0746 18.1547 50.504 17.8867 50.9346 17.9867C53.5906 18.604 55.5506 20.8893 56.7573 24.78C59.3813 33.224 59.236 42.0547 59.096 50.596C59.0906 50.9533 58.8466 51.264 58.5013 51.356C55.62 52.12 52.672 52.5053 49.708 52.5053Z" fill="var(--hm-stroke, #000000)"/>
<path d="M32.248 52.3587C26.8413 52.3587 21.4413 51.2427 16.4813 49.0853C16.1826 48.956 15.992 48.6573 16.0013 48.332C16.1133 43.7933 16.6986 39.252 17.7426 34.8347C18.2533 32.668 18.9546 30.1307 20.2773 27.74C21.4186 25.688 22.9133 23.9053 24.36 22.2853C26.0773 20.3627 27.604 18.8293 29.4786 17.6027C32.136 15.8627 35.3906 14.908 38.8946 14.844C42.264 14.7827 45.684 15.5853 48.5186 17.108C48.908 17.3173 49.0546 17.8027 48.8453 18.1907C48.636 18.58 48.152 18.7267 47.7626 18.5173C42.34 15.6067 35.1826 15.78 30.3573 18.9413C28.6293 20.0733 27.188 21.5227 25.556 23.352C24.1706 24.904 22.7426 26.6027 21.6786 28.5173C20.4506 30.736 19.788 33.1427 19.3026 35.2027C18.3253 39.3373 17.76 43.5827 17.62 47.8307C23.044 50.0973 28.9906 51.0773 34.8573 50.6693C35.2973 50.6373 35.68 50.9707 35.7106 51.412C35.7413 51.8533 35.4093 52.2347 34.968 52.2653C34.06 52.328 33.1533 52.3587 32.248 52.3587Z" fill="var(--hm-stroke, #000000)"/>
<path d="M45.2787 52.3187C44.868 52.3187 44.5173 52.004 44.4827 51.5853C44.3133 49.5773 44.704 48.6587 45.5333 46.9307C45.8373 46.3 46.412 46.1613 46.756 46.0787C46.8307 46.06 46.9013 46.044 46.9627 46.024C47.28 45.924 47.5933 45.8093 47.896 45.6813C48.508 45.428 49.0827 45.1013 49.6107 44.7093C50.6747 43.9053 51.416 42.824 51.6907 41.6667C51.832 41.084 52.024 39.668 50.7747 39.0373C50.2293 38.7613 49.6947 38.6533 48.2293 39.9413C47.8973 40.2333 47.392 40.2 47.1 39.868C46.808 39.536 46.8413 39.0307 47.1733 38.7387C49.2773 36.8893 50.4933 37.1027 51.4947 37.608C53.0467 38.392 53.7173 40.0893 53.2453 42.0387C52.8853 43.5533 51.9347 44.9573 50.5693 45.988C49.932 46.4613 49.2413 46.8533 48.5133 47.1547C48.168 47.3 47.8067 47.4333 47.4427 47.5467C47.332 47.5813 47.2253 47.608 47.132 47.6307C47.0733 47.6453 46.9973 47.6627 46.948 47.6787C46.1813 49.2787 45.944 49.88 46.0773 51.448C46.1147 51.888 45.788 52.2747 45.348 52.312C45.324 52.3173 45.3013 52.3187 45.2787 52.3187Z" fill="var(--hm-stroke, #000000)"/>
<path d="M35.8853 53.4987C35.46 53.4987 35.1067 53.164 35.0867 52.7347C35.044 51.796 35.0347 51.324 35.0613 50.68C33.4587 50.9893 31.8267 50.7053 30.568 50.4853C28.5347 50.1267 26.9547 49.4027 25.7373 48.2707C23.5 46.1867 22.456 42.808 22.872 38.9987C23.028 37.5867 23.6093 35.4853 24.4293 33.3773C24.5893 32.9653 25.0533 32.7613 25.4653 32.9213C25.8773 33.0813 26.0813 33.5453 25.9213 33.9573C25.012 36.296 24.572 38.1853 24.4627 39.1733C24.1013 42.4733 24.9627 45.3627 26.828 47.0987C27.8253 48.0267 29.1013 48.6013 30.844 48.908C32.6253 49.2187 34.216 49.428 35.6213 48.8533C35.876 48.7493 36.1667 48.784 36.3907 48.944C36.6147 49.1053 36.74 49.3693 36.7227 49.644C36.6373 50.9853 36.6227 51.2813 36.6867 52.6573C36.7067 53.0987 36.3653 53.4733 35.924 53.4933C35.9093 53.4987 35.8973 53.4987 35.8853 53.4987Z" fill="var(--hm-stroke, #000000)"/>
<path d="M29.124 37.3467C29.6395 37.3467 30.0573 36.8393 30.0573 36.2134C30.0573 35.5874 29.6395 35.08 29.124 35.08C28.6085 35.08 28.1907 35.5874 28.1907 36.2134C28.1907 36.8393 28.6085 37.3467 29.124 37.3467Z" fill="var(--hm-stroke, #000000)"/>
<path d="M33.6573 37.66C34.1728 37.66 34.5907 37.1526 34.5907 36.5267C34.5907 35.9008 34.1728 35.3933 33.6573 35.3933C33.1419 35.3933 32.724 35.9008 32.724 36.5267C32.724 37.1526 33.1419 37.66 33.6573 37.66Z" fill="var(--hm-stroke, #000000)"/>
</g><g data-hm-layer-slot="item" data-hm-part-id="hm1-p-000041" data-hm-selection-slot="item" data-hm-source-group-id="item" data-hm-source-part-id="000" transform="translate(0, 0)">
</g><g data-hm-layer-slot="glasses" data-hm-part-id="hm1-p-000058" data-hm-selection-slot="glasses" data-hm-source-group-id="glasses" data-hm-source-part-id="002" transform="translate(0, 0)">
  <g transform="scale(0.06667)">
    <circle cx="421.08" cy="582.96" r="30.37" fill="#FFFFFF" stroke="var(--hm-stroke, #000000)" stroke-width="22.68" stroke-linecap="round" stroke-linejoin="round"/>
    <circle cx="509.68" cy="587.87" r="30.37" fill="#FFFFFF" stroke="var(--hm-stroke, #000000)" stroke-width="22.68" stroke-linecap="round" stroke-linejoin="round"/>
    <path d="M456.45,586.77s7.81,4.42,18.27.72" fill="none" stroke="var(--hm-stroke, #000000)" stroke-width="22.68" stroke-linecap="round" stroke-linejoin="round"/>
  </g>
</g></svg>